<svg viewBox="0 0 330 200" xmlns="http://www.w3.org/2000/svg"><g><g><g><g><g><line x1="61.91500186920166" y1="177.55199909210205" x2="56.91500186920166" y2="177.55199909210205" style="visibility: inherit;" fill="rgb(0, 0, 0)" stroke="rgb(204, 204, 204)" stroke-width="1px"></line><line x1="61.91500186920166" y1="163.8941530080942" x2="56.91500186920166" y2="163.8941530080942" style="visibility: inherit;" fill="rgb(0, 0, 0)" stroke="rgb(204, 204, 204)" stroke-width="1px"></line><line x1="61.91500186920166" y1="150.23630692408634" x2="56.91500186920166" y2="150.23630692408634" style="visibility: inherit;" fill="rgb(0, 0, 0)" stroke="rgb(204, 204, 204)" stroke-width="1px"></line><line x1="61.91500186920166" y1="136.57846084007852" x2="56.91500186920166" y2="136.57846084007852" style="visibility: inherit;" fill="rgb(0, 0, 0)" stroke="rgb(204, 204, 204)" stroke-width="1px"></line><line x1="61.91500186920166" y1="122.92061475607065" x2="56.91500186920166" y2="122.92061475607065" style="visibility: inherit;" fill="rgb(0, 0, 0)" stroke="rgb(204, 204, 204)" stroke-width="1px"></line><line x1="61.91500186920166" y1="109.2627686720628" x2="56.91500186920166" y2="109.2627686720628" style="visibility: inherit;" fill="rgb(0, 0, 0)" stroke="rgb(204, 204, 204)" stroke-width="1px"></line><line x1="61.91500186920166" y1="95.60492258805496" x2="56.91500186920166" y2="95.60492258805496" style="visibility: inherit;" fill="rgb(0, 0, 0)" stroke="rgb(204, 204, 204)" stroke-width="1px"></line><line x1="61.91500186920166" y1="81.94707650404712" x2="56.91500186920166" y2="81.94707650404712" style="visibility: inherit;" fill="rgb(0, 0, 0)" stroke="rgb(204, 204, 204)" stroke-width="1px"></line><line x1="61.91500186920166" y1="68.28923042003926" x2="56.91500186920166" y2="68.28923042003926" style="visibility: inherit;" fill="rgb(0, 0, 0)" stroke="rgb(204, 204, 204)" stroke-width="1px"></line><line x1="61.91500186920166" y1="54.6313843360314" x2="56.91500186920166" y2="54.6313843360314" style="visibility: inherit;" fill="rgb(0, 0, 0)" stroke="rgb(204, 204, 204)" stroke-width="1px"></line><line x1="61.91500186920166" y1="40.97353825202358" x2="56.91500186920166" y2="40.97353825202358" style="visibility: inherit;" fill="rgb(0, 0, 0)" stroke="rgb(204, 204, 204)" stroke-width="1px"></line><line x1="61.91500186920166" y1="27.315692168015723" x2="56.91500186920166" y2="27.315692168015723" style="visibility: inherit;" fill="rgb(0, 0, 0)" stroke="rgb(204, 204, 204)" stroke-width="1px"></line><line x1="61.91500186920166" y1="13.657846084007861" x2="56.91500186920166" y2="13.657846084007861" style="visibility: inherit;" fill="rgb(0, 0, 0)" stroke="rgb(204, 204, 204)" stroke-width="1px"></line><line x1="61.91500186920166" y1="0" x2="56.91500186920166" y2="0" style="visibility: inherit;" fill="rgb(0, 0, 0)" stroke="rgb(204, 204, 204)" stroke-width="1px"></line></g><g transform="translate(51.91500186920166, 0)"><text style="text-anchor: end; visibility: hidden; font-family: Roboto, sans-serif; font-size: 12px; font-weight: 200;" x="0" y="177.55199909210205" dx="0em" dy="0.3em" fill="rgb(50, 49, 63)" stroke="none" stroke-width="1px">0.016</text><text style="text-anchor: end; visibility: inherit; font-family: Roboto, sans-serif; font-size: 12px; font-weight: 200;" x="0" y="163.8941530080942" dx="0em" dy="0.3em" fill="rgb(50, 49, 63)" stroke="none" stroke-width="1px">0.018</text><text style="text-anchor: end; visibility: hidden; font-family: Roboto, sans-serif; font-size: 12px; font-weight: 200;" x="0" y="150.23630692408634" dx="0em" dy="0.3em" fill="rgb(50, 49, 63)" stroke="none" stroke-width="1px">0.02</text><text style="text-anchor: end; visibility: inherit; font-family: Roboto, sans-serif; font-size: 12px; font-weight: 200;" x="0" y="136.57846084007852" dx="0em" dy="0.3em" fill="rgb(50, 49, 63)" stroke="none" stroke-width="1px">0.022</text><text style="text-anchor: end; visibility: hidden; font-family: Roboto, sans-serif; font-size: 12px; font-weight: 200;" x="0" y="122.92061475607065" dx="0em" dy="0.3em" fill="rgb(50, 49, 63)" stroke="none" stroke-width="1px">0.024</text><text style="text-anchor: end; visibility: inherit; font-family: Roboto, sans-serif; font-size: 12px; font-weight: 200;" x="0" y="109.2627686720628" dx="0em" dy="0.3em" fill="rgb(50, 49, 63)" stroke="none" stroke-width="1px">0.026</text><text style="text-anchor: end; visibility: hidden; font-family: Roboto, sans-serif; font-size: 12px; font-weight: 200;" x="0" y="95.60492258805496" dx="0em" dy="0.3em" fill="rgb(50, 49, 63)" stroke="none" stroke-width="1px">0.028</text><text style="text-anchor: end; visibility: inherit; font-family: Roboto, sans-serif; font-size: 12px; font-weight: 200;" x="0" y="81.94707650404712" dx="0em" dy="0.3em" fill="rgb(50, 49, 63)" stroke="none" stroke-width="1px">0.03</text><text style="text-anchor: end; visibility: hidden; font-family: Roboto, sans-serif; font-size: 12px; font-weight: 200;" x="0" y="68.28923042003926" dx="0em" dy="0.3em" fill="rgb(50, 49, 63)" stroke="none" stroke-width="1px">0.032</text><text style="text-anchor: end; visibility: inherit; font-family: Roboto, sans-serif; font-size: 12px; font-weight: 200;" x="0" y="54.6313843360314" dx="0em" dy="0.3em" fill="rgb(50, 49, 63)" stroke="none" stroke-width="1px">0.034</text><text style="text-anchor: end; visibility: hidden; font-family: Roboto, sans-serif; font-size: 12px; font-weight: 200;" x="0" y="40.97353825202358" dx="0em" dy="0.3em" fill="rgb(50, 49, 63)" stroke="none" stroke-width="1px">0.036</text><text style="text-anchor: end; visibility: inherit; font-family: Roboto, sans-serif; font-size: 12px; font-weight: 200;" x="0" y="27.315692168015723" dx="0em" dy="0.3em" fill="rgb(50, 49, 63)" stroke="none" stroke-width="1px">0.038</text><text style="text-anchor: end; visibility: hidden; font-family: Roboto, sans-serif; font-size: 12px; font-weight: 200;" x="0" y="13.657846084007861" dx="0em" dy="0.3em" fill="rgb(50, 49, 63)" stroke="none" stroke-width="1px">0.04</text><text style="text-anchor: end; visibility: hidden; font-family: Roboto, sans-serif; font-size: 12px; font-weight: 200;" x="0" y="0" dx="0em" dy="0.3em" fill="rgb(50, 49, 63)" stroke="none" stroke-width="1px">0.042</text></g><line x1="61.91500186920166" y1="0" x2="61.91500186920166" y2="177.55199909210205" fill="rgb(0, 0, 0)" stroke="rgb(204, 204, 204)" stroke-width="1px"></line></g></g><g transform="translate(61, 0)" clip-path="url(#clip_0)"><clipPath id="clip_0"><rect width="268" height="177"></rect></clipPath><g><g><g><line x1="0" y1="0" x2="0" y2="177.55199909210205" fill="rgb(0, 0, 0)" stroke="rgb(60, 60, 60)" stroke-width="1px" opacity="0.25"></line><line x1="29.787222014533146" y1="0" x2="29.787222014533146" y2="177.55199909210205" fill="rgb(0, 0, 0)" stroke="rgb(60, 60, 60)" stroke-width="1px" opacity="0.25"></line><line x1="59.57444402906629" y1="0" x2="59.57444402906629" y2="177.55199909210205" fill="rgb(0, 0, 0)" stroke="rgb(60, 60, 60)" stroke-width="1px" opacity="0.25"></line><line x1="89.36166604359944" y1="0" x2="89.36166604359944" y2="177.55199909210205" fill="rgb(0, 0, 0)" stroke="rgb(60, 60, 60)" stroke-width="1px" opacity="0.25"></line><line x1="119.14888805813258" y1="0" x2="119.14888805813258" y2="177.55199909210205" fill="rgb(0, 0, 0)" stroke="rgb(60, 60, 60)" stroke-width="1px" opacity="0.25"></line><line x1="148.93611007266574" y1="0" x2="148.93611007266574" y2="177.55199909210205" fill="rgb(0, 0, 0)" stroke="rgb(60, 60, 60)" stroke-width="1px" opacity="0.25"></line><line x1="178.72333208719888" y1="0" x2="178.72333208719888" y2="177.55199909210205" fill="rgb(0, 0, 0)" stroke="rgb(60, 60, 60)" stroke-width="1px" opacity="0.25"></line><line x1="208.51055410173205" y1="0" x2="208.51055410173205" y2="177.55199909210205" fill="rgb(0, 0, 0)" stroke="rgb(60, 60, 60)" stroke-width="1px" opacity="0.25"></line><line x1="238.29777611626517" y1="0" x2="238.29777611626517" y2="177.55199909210205" fill="rgb(0, 0, 0)" stroke="rgb(60, 60, 60)" stroke-width="1px" opacity="0.25"></line><line x1="268.08499813079834" y1="0" x2="268.08499813079834" y2="177.55199909210205" fill="rgb(0, 0, 0)" stroke="rgb(60, 60, 60)" stroke-width="1px" opacity="0.25"></line></g><g><line x1="0" y1="177.55199909210205" x2="268.08499813079834" y2="177.55199909210205" fill="rgb(0, 0, 0)" stroke="rgb(60, 60, 60)" stroke-width="1px" opacity="0.25"></line><line x1="0" y1="163.8941530080942" x2="268.08499813079834" y2="163.8941530080942" fill="rgb(0, 0, 0)" stroke="rgb(60, 60, 60)" stroke-width="1px" opacity="0.25"></line><line x1="0" y1="150.23630692408634" x2="268.08499813079834" y2="150.23630692408634" fill="rgb(0, 0, 0)" stroke="rgb(60, 60, 60)" stroke-width="1px" opacity="0.25"></line><line x1="0" y1="136.57846084007852" x2="268.08499813079834" y2="136.57846084007852" fill="rgb(0, 0, 0)" stroke="rgb(60, 60, 60)" stroke-width="1px" opacity="0.25"></line><line x1="0" y1="122.92061475607065" x2="268.08499813079834" y2="122.92061475607065" fill="rgb(0, 0, 0)" stroke="rgb(60, 60, 60)" stroke-width="1px" opacity="0.25"></line><line x1="0" y1="109.2627686720628" x2="268.08499813079834" y2="109.2627686720628" fill="rgb(0, 0, 0)" stroke="rgb(60, 60, 60)" stroke-width="1px" opacity="0.25"></line><line x1="0" y1="95.60492258805496" x2="268.08499813079834" y2="95.60492258805496" fill="rgb(0, 0, 0)" stroke="rgb(60, 60, 60)" stroke-width="1px" opacity="0.25"></line><line x1="0" y1="81.94707650404712" x2="268.08499813079834" y2="81.94707650404712" fill="rgb(0, 0, 0)" stroke="rgb(60, 60, 60)" stroke-width="1px" opacity="0.25"></line><line x1="0" y1="68.28923042003926" x2="268.08499813079834" y2="68.28923042003926" fill="rgb(0, 0, 0)" stroke="rgb(60, 60, 60)" stroke-width="1px" opacity="0.25"></line><line x1="0" y1="54.6313843360314" x2="268.08499813079834" y2="54.6313843360314" fill="rgb(0, 0, 0)" stroke="rgb(60, 60, 60)" stroke-width="1px" opacity="0.25"></line><line x1="0" y1="40.97353825202358" x2="268.08499813079834" y2="40.97353825202358" fill="rgb(0, 0, 0)" stroke="rgb(60, 60, 60)" stroke-width="1px" opacity="0.25"></line><line x1="0" y1="27.315692168015723" x2="268.08499813079834" y2="27.315692168015723" fill="rgb(0, 0, 0)" stroke="rgb(60, 60, 60)" stroke-width="1px" opacity="0.25"></line><line x1="0" y1="13.657846084007861" x2="268.08499813079834" y2="13.657846084007861" fill="rgb(0, 0, 0)" stroke="rgb(60, 60, 60)" stroke-width="1px" opacity="0.25"></line><line x1="0" y1="0" x2="268.08499813079834" y2="0" fill="rgb(0, 0, 0)" stroke="rgb(60, 60, 60)" stroke-width="1px" opacity="0.25"></line></g></g></g><g><g><line x1="0" y1="286.81476776416486" x2="268.08499813079834" y2="286.81476776416486" fill="rgb(0, 0, 0)" stroke="rgb(153, 153, 153)" stroke-width="1.5px"></line></g></g><g><g><line x1="29.787222014533146" y1="0" x2="29.787222014533146" y2="177.55199909210205" fill="rgb(0, 0, 0)" stroke="rgb(153, 153, 153)" stroke-width="1.5px"></line></g></g><g><g><g><g><g><path style="fill: none;" stroke="rgb(255, 112, 67)" stroke-width="2px" d="M35.74466641743978,180.96854681012456L38.72338861889309,174.58087385899034L41.70211082034641,167.57834043667057L44.68083302179972,160.05738016666405L47.65955522325304,152.11703023111113L50.63827742470635,143.84971463289065L53.61699962615967,135.33561950627947L56.595721827612984,126.64039493897785L59.57444402906629,117.81539302694912L62.553166230519615,108.89926717195046L65.53188843197293,99.92025506856949L68.51061063342624,90.89847140834425L71.48933283487956,81.84795324734081L74.46805503633287,72.77833672653055L77.44677723778618,63.69613543313593L80.4254994392395,54.605694372408124L83.40422164069282,45.509900910086124L86.38294384214613,36.410660540400855L89.36166604359944,27.309204436401334L92.34038824505276,21.86449989030125L95.31911044650607,18.645591085941966L98.29783264795938,16.79399145747587L101.2765548494127,15.794569303194894L104.25527705086603,15.338206132009407L107.23399925231934,15.239343405702277L110.21272145377264,15.386545742327849L113.19144365522597,15.712840517871014L116.17016585667929,16.177901886336542L119.14888805813258,16.757371590422206L122.12761025958591,17.436461705095233L125.10633246103923,18.206106137441054L128.08505466249255,19.06066171311827L122.12761025958591,18.818435681695316L125.10633246103923,19.035290465875633L128.08505466249255,19.558172274765514L131.06377686394586,20.294994443125315L134.04249906539917,21.190291280253174L137.02122126685248,22.210498447441793L139.99994346830582,23.335202592580593L142.97866566975912,24.551840251825634L145.9573878712124,25.852588421934055L148.93611007266574,27.232386968925752L151.91483227411905,28.687874183945876L154.89355447557236,30.21664635789779L157.8722766770257,31.81690510921409L160.850998878479,33.48714402163318L163.82972107993234,35.22606238574643L166.80844328138565,37.032442212706385L169.78716548283893,38.90511514600442L172.76588768429227,40.84291208087148L175.74460988574558,42.84464311180604L178.72333208719888,44.90913638053287L181.70205428865222,47.03514945000635L184.68077649010553,49.22145859124845L187.65949869155884,51.46675971712717L190.63822089301215,53.76973105328321L193.61694309446546,56.129050388909164L196.59566529591876,58.54333419599882L199.5743874973721,61.01116215622709L202.5531096988254,63.531091877077124L205.53183190027875,66.10165754562901L208.51055410173205,68.7213589449443L211.48927630318536,71.38865995184108L214.46799850463867,74.10201307527947L217.44672070609198,76.85981821200748L220.4254429075453,79.66046913116688L211.48927630318536,77.95212606357461L214.46799850463867,78.04009274231956L217.44672070609198,79.22266601223154L220.4254429075453,81.07817781130129L223.40416510899863,83.35295569369521L226.38288731045193,85.8941296712293L229.36160951190524,88.6092807026444L232.34033171335858,91.44226031483628L235.31905391481186,94.3586671117612" fill="none"></path></g></g></g></g><g opacity="0.2"><g><g><g><path style="fill: none;" stroke="rgb(255, 112, 67)" stroke-width="2px" d="M35.74466641743978,177.55404179991996L38.72338861889309,168.44870782590144L41.70211082034641,159.34336113202252L44.68083302179972,150.23801443814358L47.65955522325304,141.13266774426467L50.63827742470635,132.02732105038575L53.61699962615967,122.92198707636719L56.595721827612984,113.8166276626279L59.57444402906629,104.71129368860935L62.553166230519615,95.60594699473042L65.53188843197293,86.50060030085149L68.51061063342624,77.39525360697257L71.48933283487956,68.28990691309363L74.46805503633287,59.1845729390751L77.44677723778618,50.079238965056554L80.4254994392395,40.97387955131724L83.40422164069282,31.868520137577935L86.38294384214613,22.763186163559403L89.36166604359944,13.657852189540852L92.34038824505276,13.697741671688323L95.31911044650607,13.817333798968498L98.29783264795938,14.016628571381338L101.2765548494127,14.295447910881569L104.25527705086603,14.653664618865399L107.23399925231934,15.091049737845996L110.21272145377264,15.607348870615814L113.19144365522597,16.202282180246502L116.17016585667929,16.875493510647463L119.14888805813258,17.626575826286587L122.12761025958591,18.455096651910996L125.10633246103923,19.360572632826294L128.08505466249255,20.342494974617342L122.12761025958591,18.455096651910996L125.10633246103923,19.360572632826294L128.08505466249255,20.342494974617342L131.06377686394586,21.40022768426521L134.04249906539917,22.533236527633978L137.02122126685248,23.740809192542443L139.99994346830582,25.022258806530196L142.97866566975912,26.376796738253706L145.9573878712124,27.803710675531793L148.93611007266574,29.30208478841721L151.91483227411905,30.87110500584568L154.89355447557236,32.50980461842846L157.8722766770257,34.21729323593904L160.850998878479,35.99250239010562L163.82972107993234,37.83443993181863L166.80844328138565,39.74201195308553L169.78716548283893,41.714124545913755L172.76588768429227,43.74960748314846L175.74460988574558,45.84723965819329L178.72333208719888,48.005876283614185L181.70205428865222,50.22416905421101L184.68077649010553,52.500922303108126L187.65949869155884,54.83471140594319L190.63822089301215,57.22418805751599L193.61694309446546,59.668029392347215L196.59566529591876,62.16475990663288L199.5743874973721,64.7129040965691L202.5531096988254,67.31098645835195L205.53183190027875,69.95750604845674L208.51055410173205,72.65091104391726L211.48927630318536,75.3896114621862L214.46799850463867,78.17204276043695L217.44672070609198,80.99652591709958L220.4254429075453,83.86144550990596L211.48927630318536,75.3896114621862L214.46799850463867,78.17204276043695L217.44672070609198,80.99652591709958L220.4254429075453,83.86144550990596L223.40416510899863,86.7651225172861L226.38288731045193,89.70589063753042L229.36160951190524,92.68200724976705L232.34033171335858,95.6917297331241L235.31905391481186,98.73327730714855" fill="none"></path></g></g></g></g></g></g><g transform="translate(61, 177)" clip-path="url(#clip_1)"><clipPath id="clip_1"><rect width="268" height="22"></rect></clipPath><g><g><line x1="0" y1="0" x2="0" y2="5" style="visibility: inherit;" fill="rgb(0, 0, 0)" stroke="rgb(204, 204, 204)" stroke-width="1px"></line><line x1="29.787222014533146" y1="0" x2="29.787222014533146" y2="5" style="visibility: inherit;" fill="rgb(0, 0, 0)" stroke="rgb(204, 204, 204)" stroke-width="1px"></line><line x1="59.57444402906629" y1="0" x2="59.57444402906629" y2="5" style="visibility: inherit;" fill="rgb(0, 0, 0)" stroke="rgb(204, 204, 204)" stroke-width="1px"></line><line x1="89.36166604359944" y1="0" x2="89.36166604359944" y2="5" style="visibility: inherit;" fill="rgb(0, 0, 0)" stroke="rgb(204, 204, 204)" stroke-width="1px"></line><line x1="119.14888805813258" y1="0" x2="119.14888805813258" y2="5" style="visibility: inherit;" fill="rgb(0, 0, 0)" stroke="rgb(204, 204, 204)" stroke-width="1px"></line><line x1="148.93611007266574" y1="0" x2="148.93611007266574" y2="5" style="visibility: inherit;" fill="rgb(0, 0, 0)" stroke="rgb(204, 204, 204)" stroke-width="1px"></line><line x1="178.72333208719888" y1="0" x2="178.72333208719888" y2="5" style="visibility: inherit;" fill="rgb(0, 0, 0)" stroke="rgb(204, 204, 204)" stroke-width="1px"></line><line x1="208.51055410173205" y1="0" x2="208.51055410173205" y2="5" style="visibility: inherit;" fill="rgb(0, 0, 0)" stroke="rgb(204, 204, 204)" stroke-width="1px"></line><line x1="238.29777611626517" y1="0" x2="238.29777611626517" y2="5" style="visibility: inherit;" fill="rgb(0, 0, 0)" stroke="rgb(204, 204, 204)" stroke-width="1px"></line><line x1="268.08499813079834" y1="0" x2="268.08499813079834" y2="5" style="visibility: inherit;" fill="rgb(0, 0, 0)" stroke="rgb(204, 204, 204)" stroke-width="1px"></line></g><g transform="translate(0, 8)"><text style="text-anchor: middle; visibility: hidden; font-family: Roboto, sans-serif; font-size: 12px; font-weight: 200;" x="0" y="0" dx="0em" dy="0.95em" fill="rgb(50, 49, 63)" stroke="none" stroke-width="1px">-1k</text><text style="text-anchor: middle; visibility: inherit; font-family: Roboto, sans-serif; font-size: 12px; font-weight: 200;" x="29.787222014533146" y="0" dx="0em" dy="0.95em" fill="rgb(50, 49, 63)" stroke="none" stroke-width="1px">0</text><text style="text-anchor: middle; visibility: inherit; font-family: Roboto, sans-serif; font-size: 12px; font-weight: 200;" x="59.57444402906629" y="0" dx="0em" dy="0.95em" fill="rgb(50, 49, 63)" stroke="none" stroke-width="1px">1k</text><text style="text-anchor: middle; visibility: inherit; font-family: Roboto, sans-serif; font-size: 12px; font-weight: 200;" x="89.36166604359944" y="0" dx="0em" dy="0.95em" fill="rgb(50, 49, 63)" stroke="none" stroke-width="1px">2k</text><text style="text-anchor: middle; visibility: inherit; font-family: Roboto, sans-serif; font-size: 12px; font-weight: 200;" x="119.14888805813258" y="0" dx="0em" dy="0.95em" fill="rgb(50, 49, 63)" stroke="none" stroke-width="1px">3k</text><text style="text-anchor: middle; visibility: inherit; font-family: Roboto, sans-serif; font-size: 12px; font-weight: 200;" x="148.93611007266574" y="0" dx="0em" dy="0.95em" fill="rgb(50, 49, 63)" stroke="none" stroke-width="1px">4k</text><text style="text-anchor: middle; visibility: inherit; font-family: Roboto, sans-serif; font-size: 12px; font-weight: 200;" x="178.72333208719888" y="0" dx="0em" dy="0.95em" fill="rgb(50, 49, 63)" stroke="none" stroke-width="1px">5k</text><text style="text-anchor: middle; visibility: inherit; font-family: Roboto, sans-serif; font-size: 12px; font-weight: 200;" x="208.51055410173205" y="0" dx="0em" dy="0.95em" fill="rgb(50, 49, 63)" stroke="none" stroke-width="1px">6k</text><text style="text-anchor: middle; visibility: inherit; font-family: Roboto, sans-serif; font-size: 12px; font-weight: 200;" x="238.29777611626517" y="0" dx="0em" dy="0.95em" fill="rgb(50, 49, 63)" stroke="none" stroke-width="1px">7k</text><text style="text-anchor: middle; visibility: hidden; font-family: Roboto, sans-serif; font-size: 12px; font-weight: 200;" x="268.08499813079834" y="0" dx="0em" dy="0.95em" fill="rgb(50, 49, 63)" stroke="none" stroke-width="1px">8k</text></g><line x1="0" y1="0" x2="268.08499813079834" y2="0" fill="rgb(0, 0, 0)" stroke="rgb(204, 204, 204)" stroke-width="1px"></line></g></g></g></g></svg>