<svg viewBox="0 0 330 200" xmlns="http://www.w3.org/2000/svg"><g><g><g><g><g><line x1="51.53200149536133" y1="177.55199909210205" x2="46.53200149536133" y2="177.55199909210205" style="visibility: inherit;" fill="rgb(0, 0, 0)" stroke="rgb(204, 204, 204)" stroke-width="1px"></line><line x1="51.53200149536133" y1="159.79679918289185" x2="46.53200149536133" y2="159.79679918289185" style="visibility: inherit;" fill="rgb(0, 0, 0)" stroke="rgb(204, 204, 204)" stroke-width="1px"></line><line x1="51.53200149536133" y1="142.04159927368164" x2="46.53200149536133" y2="142.04159927368164" style="visibility: inherit;" fill="rgb(0, 0, 0)" stroke="rgb(204, 204, 204)" stroke-width="1px"></line><line x1="51.53200149536133" y1="124.28639936447142" x2="46.53200149536133" y2="124.28639936447142" style="visibility: inherit;" fill="rgb(0, 0, 0)" stroke="rgb(204, 204, 204)" stroke-width="1px"></line><line x1="51.53200149536133" y1="106.53119945526123" x2="46.53200149536133" y2="106.53119945526123" style="visibility: inherit;" fill="rgb(0, 0, 0)" stroke="rgb(204, 204, 204)" stroke-width="1px"></line><line x1="51.53200149536133" y1="88.77599954605103" x2="46.53200149536133" y2="88.77599954605103" style="visibility: inherit;" fill="rgb(0, 0, 0)" stroke="rgb(204, 204, 204)" stroke-width="1px"></line><line x1="51.53200149536133" y1="71.02079963684082" x2="46.53200149536133" y2="71.02079963684082" style="visibility: inherit;" fill="rgb(0, 0, 0)" stroke="rgb(204, 204, 204)" stroke-width="1px"></line><line x1="51.53200149536133" y1="53.26559972763062" x2="46.53200149536133" y2="53.26559972763062" style="visibility: inherit;" fill="rgb(0, 0, 0)" stroke="rgb(204, 204, 204)" stroke-width="1px"></line><line x1="51.53200149536133" y1="35.5103998184204" x2="46.53200149536133" y2="35.5103998184204" style="visibility: inherit;" fill="rgb(0, 0, 0)" stroke="rgb(204, 204, 204)" stroke-width="1px"></line><line x1="51.53200149536133" y1="17.7551999092102" x2="46.53200149536133" y2="17.7551999092102" style="visibility: inherit;" fill="rgb(0, 0, 0)" stroke="rgb(204, 204, 204)" stroke-width="1px"></line><line x1="51.53200149536133" y1="0" x2="46.53200149536133" y2="0" style="visibility: inherit;" fill="rgb(0, 0, 0)" stroke="rgb(204, 204, 204)" stroke-width="1px"></line></g><g transform="translate(41.53200149536133, 0)"><text style="text-anchor: end; visibility: hidden; font-family: Roboto, sans-serif; font-size: 12px; font-weight: 200;" x="0" y="177.55199909210205" dx="0em" dy="0.3em" fill="rgb(50, 49, 63)" stroke="none" stroke-width="1px">-1</text><text style="text-anchor: end; visibility: inherit; font-family: Roboto, sans-serif; font-size: 12px; font-weight: 200;" x="0" y="159.79679918289185" dx="0em" dy="0.3em" fill="rgb(50, 49, 63)" stroke="none" stroke-width="1px">-0.8</text><text style="text-anchor: end; visibility: hidden; font-family: Roboto, sans-serif; font-size: 12px; font-weight: 200;" x="0" y="142.04159927368164" dx="0em" dy="0.3em" fill="rgb(50, 49, 63)" stroke="none" stroke-width="1px">-0.6</text><text style="text-anchor: end; visibility: inherit; font-family: Roboto, sans-serif; font-size: 12px; font-weight: 200;" x="0" y="124.28639936447142" dx="0em" dy="0.3em" fill="rgb(50, 49, 63)" stroke="none" stroke-width="1px">-0.4</text><text style="text-anchor: end; visibility: hidden; font-family: Roboto, sans-serif; font-size: 12px; font-weight: 200;" x="0" y="106.53119945526123" dx="0em" dy="0.3em" fill="rgb(50, 49, 63)" stroke="none" stroke-width="1px">-0.2</text><text style="text-anchor: end; visibility: inherit; font-family: Roboto, sans-serif; font-size: 12px; font-weight: 200;" x="0" y="88.77599954605103" dx="0em" dy="0.3em" fill="rgb(50, 49, 63)" stroke="none" stroke-width="1px">0</text><text style="text-anchor: end; visibility: hidden; font-family: Roboto, sans-serif; font-size: 12px; font-weight: 200;" x="0" y="71.02079963684082" dx="0em" dy="0.3em" fill="rgb(50, 49, 63)" stroke="none" stroke-width="1px">0.2</text><text style="text-anchor: end; visibility: inherit; font-family: Roboto, sans-serif; font-size: 12px; font-weight: 200;" x="0" y="53.26559972763062" dx="0em" dy="0.3em" fill="rgb(50, 49, 63)" stroke="none" stroke-width="1px">0.4</text><text style="text-anchor: end; visibility: hidden; font-family: Roboto, sans-serif; font-size: 12px; font-weight: 200;" x="0" y="35.5103998184204" dx="0em" dy="0.3em" fill="rgb(50, 49, 63)" stroke="none" stroke-width="1px">0.6</text><text style="text-anchor: end; visibility: inherit; font-family: Roboto, sans-serif; font-size: 12px; font-weight: 200;" x="0" y="17.7551999092102" dx="0em" dy="0.3em" fill="rgb(50, 49, 63)" stroke="none" stroke-width="1px">0.8</text><text style="text-anchor: end; visibility: hidden; font-family: Roboto, sans-serif; font-size: 12px; font-weight: 200;" x="0" y="0" dx="0em" dy="0.3em" fill="rgb(50, 49, 63)" stroke="none" stroke-width="1px">1</text></g><line x1="51.53200149536133" y1="0" x2="51.53200149536133" y2="177.55199909210205" fill="rgb(0, 0, 0)" stroke="rgb(204, 204, 204)" stroke-width="1px"></line></g></g><g transform="translate(51, 0)" clip-path="url(#clip_0)"><clipPath id="clip_0"><rect width="278" height="177"></rect></clipPath><g><g><g><line x1="0" y1="0" x2="0" y2="177.55199909210205" fill="rgb(0, 0, 0)" stroke="rgb(60, 60, 60)" stroke-width="1px" opacity="0.25"></line><line x1="30.94088872273763" y1="0" x2="30.94088872273763" y2="177.55199909210205" fill="rgb(0, 0, 0)" stroke="rgb(60, 60, 60)" stroke-width="1px" opacity="0.25"></line><line x1="61.88177744547526" y1="0" x2="61.88177744547526" y2="177.55199909210205" fill="rgb(0, 0, 0)" stroke="rgb(60, 60, 60)" stroke-width="1px" opacity="0.25"></line><line x1="92.82266616821289" y1="0" x2="92.82266616821289" y2="177.55199909210205" fill="rgb(0, 0, 0)" stroke="rgb(60, 60, 60)" stroke-width="1px" opacity="0.25"></line><line x1="123.76355489095052" y1="0" x2="123.76355489095052" y2="177.55199909210205" fill="rgb(0, 0, 0)" stroke="rgb(60, 60, 60)" stroke-width="1px" opacity="0.25"></line><line x1="154.70444361368817" y1="0" x2="154.70444361368817" y2="177.55199909210205" fill="rgb(0, 0, 0)" stroke="rgb(60, 60, 60)" stroke-width="1px" opacity="0.25"></line><line x1="185.64533233642578" y1="0" x2="185.64533233642578" y2="177.55199909210205" fill="rgb(0, 0, 0)" stroke="rgb(60, 60, 60)" stroke-width="1px" opacity="0.25"></line><line x1="216.58622105916342" y1="0" x2="216.58622105916342" y2="177.55199909210205" fill="rgb(0, 0, 0)" stroke="rgb(60, 60, 60)" stroke-width="1px" opacity="0.25"></line><line x1="247.52710978190103" y1="0" x2="247.52710978190103" y2="177.55199909210205" fill="rgb(0, 0, 0)" stroke="rgb(60, 60, 60)" stroke-width="1px" opacity="0.25"></line><line x1="278.4679985046387" y1="0" x2="278.4679985046387" y2="177.55199909210205" fill="rgb(0, 0, 0)" stroke="rgb(60, 60, 60)" stroke-width="1px" opacity="0.25"></line></g><g><line x1="0" y1="177.55199909210205" x2="278.4679985046387" y2="177.55199909210205" fill="rgb(0, 0, 0)" stroke="rgb(60, 60, 60)" stroke-width="1px" opacity="0.25"></line><line x1="0" y1="159.79679918289185" x2="278.4679985046387" y2="159.79679918289185" fill="rgb(0, 0, 0)" stroke="rgb(60, 60, 60)" stroke-width="1px" opacity="0.25"></line><line x1="0" y1="142.04159927368164" x2="278.4679985046387" y2="142.04159927368164" fill="rgb(0, 0, 0)" stroke="rgb(60, 60, 60)" stroke-width="1px" opacity="0.25"></line><line x1="0" y1="124.28639936447142" x2="278.4679985046387" y2="124.28639936447142" fill="rgb(0, 0, 0)" stroke="rgb(60, 60, 60)" stroke-width="1px" opacity="0.25"></line><line x1="0" y1="106.53119945526123" x2="278.4679985046387" y2="106.53119945526123" fill="rgb(0, 0, 0)" stroke="rgb(60, 60, 60)" stroke-width="1px" opacity="0.25"></line><line x1="0" y1="88.77599954605103" x2="278.4679985046387" y2="88.77599954605103" fill="rgb(0, 0, 0)" stroke="rgb(60, 60, 60)" stroke-width="1px" opacity="0.25"></line><line x1="0" y1="71.02079963684082" x2="278.4679985046387" y2="71.02079963684082" fill="rgb(0, 0, 0)" stroke="rgb(60, 60, 60)" stroke-width="1px" opacity="0.25"></line><line x1="0" y1="53.26559972763062" x2="278.4679985046387" y2="53.26559972763062" fill="rgb(0, 0, 0)" stroke="rgb(60, 60, 60)" stroke-width="1px" opacity="0.25"></line><line x1="0" y1="35.5103998184204" x2="278.4679985046387" y2="35.5103998184204" fill="rgb(0, 0, 0)" stroke="rgb(60, 60, 60)" stroke-width="1px" opacity="0.25"></line><line x1="0" y1="17.7551999092102" x2="278.4679985046387" y2="17.7551999092102" fill="rgb(0, 0, 0)" stroke="rgb(60, 60, 60)" stroke-width="1px" opacity="0.25"></line><line x1="0" y1="0" x2="278.4679985046387" y2="0" fill="rgb(0, 0, 0)" stroke="rgb(60, 60, 60)" stroke-width="1px" opacity="0.25"></line></g></g></g><g><g><line x1="0" y1="88.77599954605103" x2="278.4679985046387" y2="88.77599954605103" fill="rgb(0, 0, 0)" stroke="rgb(153, 153, 153)" stroke-width="1.5px"></line></g></g><g><g><line x1="30.94088872273763" y1="0" x2="30.94088872273763" y2="177.55199909210205" fill="rgb(0, 0, 0)" stroke="rgb(153, 153, 153)" stroke-width="1.5px"></line></g></g><g><g><g><g><g><path style="fill: none;" stroke="rgb(255, 112, 67)" stroke-width="2px" d="M34.03497759501139,88.77599954605103L37.129066467285156,88.77599954605103L40.223155339558915,88.77599954605103L43.31724421183268,88.77599954605103L46.411333084106445,88.77599954605103L49.50542195638021,88.77599954605103L52.59951082865397,88.77599954605103L55.693599700927734,88.77599954605103L58.7876885732015,88.77599954605103L61.88177744547526,88.77599954605103L64.97586631774902,88.77599954605103L68.06995519002278,88.77599954605103L71.16404406229654,88.77599954605103L74.25813293457031,88.77599954605103L77.35222180684408,88.77599954605103L80.44631067911783,88.77599954605103L83.5403995513916,88.77599954605103L86.63448842366536,88.77599954605103L89.72857729593913,88.77599954605103L92.82266616821289,88.77599954605103L95.91675504048665,88.77599954605103L99.01084391276042,88.77599954605103L102.10493278503417,88.77599954605103L105.19902165730794,88.77599954605103L108.29311052958171,88.77599954605103L111.38719940185547,88.77599954605103L114.48128827412923,88.77599954605103L117.575377146403,88.77599954605103L120.66946601867676,88.77599954605103L123.76355489095052,88.77599954605103L126.85764376322427,88.77599954605103L129.95173263549805,88.77599954605103L133.04582150777182,88.77599954605103L126.85764376322427,88.77599954605103L129.95173263549805,88.77599954605103L133.04582150777182,88.77599954605103L136.13991038004556,88.77599954605103L139.23399925231934,88.77599954605103L142.32808812459308,88.77599954605103L145.42217699686688,88.77599954605103L148.51626586914062,88.77599954605103L151.61035474141437,88.77599954605103L154.70444361368817,88.77599954605103L157.7985324859619,88.77599954605103L160.89262135823566,88.77599954605103L163.98671023050946,88.77599954605103L167.0807991027832,88.77599954605103L170.17488797505698,88.77599954605103L173.26897684733072,88.77599954605103L176.3630657196045,88.77599954605103L179.45715459187826,88.77599954605103L182.551243464152,88.77599954605103L185.64533233642578,88.77599954605103L188.73942120869955,88.77599954605103L191.8335100809733,88.77599954605103L194.92759895324707,88.77599954605103L198.02168782552084,88.77599954605103L201.1157766977946,88.77599954605103L204.20986557006833,88.77599954605103L207.30395444234213,88.77599954605103L210.39804331461588,88.77599954605103L213.49213218688968,88.77599954605103L216.58622105916342,88.77599954605103L219.68030993143717,88.77599954605103L222.77439880371094,88.77599954605103L225.8684876759847,88.77599954605103L228.96257654825845,88.77599954605103L219.68030993143717,88.77599954605103L222.77439880371094,88.77599954605103L225.8684876759847,88.77599954605103L228.96257654825845,88.77599954605103L232.05666542053223,88.77599954605103L235.150754292806,88.77599954605103L238.24484316507974,88.77599954605103L241.33893203735352,88.77599954605103L244.4330209096273,88.77599954605103L247.52710978190103,88.77599954605103" fill="none"></path></g><g><path style="fill: none;" stroke="rgb(0, 119, 187)" stroke-width="2px" d="M30.94088872273763,88.77599954605103L61.88177744547526,88.77599954605103L92.82266616821289,88.77599954605103L123.76355489095052,88.77599954605103L123.76355489095052,88.77599954605103L154.70444361368817,88.77599954605103L185.64533233642578,88.77599954605103L216.58622105916342,88.77599954605103L247.52710978190103,88.77599954605103" fill="none"></path></g></g></g></g><g opacity="0.2"><g><g><g><path style="fill: none;" stroke="rgb(255, 112, 67)" stroke-width="2px" d="M34.03497759501139,88.77599954605103L37.129066467285156,88.77599954605103L40.223155339558915,88.77599954605103L43.31724421183268,88.77599954605103L46.411333084106445,88.77599954605103L49.50542195638021,88.77599954605103L52.59951082865397,88.77599954605103L55.693599700927734,88.77599954605103L58.7876885732015,88.77599954605103L61.88177744547526,88.77599954605103L64.97586631774902,88.77599954605103L68.06995519002278,88.77599954605103L71.16404406229654,88.77599954605103L74.25813293457031,88.77599954605103L77.35222180684408,88.77599954605103L80.44631067911783,88.77599954605103L83.5403995513916,88.77599954605103L86.63448842366536,88.77599954605103L89.72857729593913,88.77599954605103L92.82266616821289,88.77599954605103L95.91675504048665,88.77599954605103L99.01084391276042,88.77599954605103L102.10493278503417,88.77599954605103L105.19902165730794,88.77599954605103L108.29311052958171,88.77599954605103L111.38719940185547,88.77599954605103L114.48128827412923,88.77599954605103L117.575377146403,88.77599954605103L120.66946601867676,88.77599954605103L123.76355489095052,88.77599954605103L126.85764376322427,88.77599954605103L129.95173263549805,88.77599954605103L133.04582150777182,88.77599954605103L126.85764376322427,88.77599954605103L129.95173263549805,88.77599954605103L133.04582150777182,88.77599954605103L136.13991038004556,88.77599954605103L139.23399925231934,88.77599954605103L142.32808812459308,88.77599954605103L145.42217699686688,88.77599954605103L148.51626586914062,88.77599954605103L151.61035474141437,88.77599954605103L154.70444361368817,88.77599954605103L157.7985324859619,88.77599954605103L160.89262135823566,88.77599954605103L163.98671023050946,88.77599954605103L167.0807991027832,88.77599954605103L170.17488797505698,88.77599954605103L173.26897684733072,88.77599954605103L176.3630657196045,88.77599954605103L179.45715459187826,88.77599954605103L182.551243464152,88.77599954605103L185.64533233642578,88.77599954605103L188.73942120869955,88.77599954605103L191.8335100809733,88.77599954605103L194.92759895324707,88.77599954605103L198.02168782552084,88.77599954605103L201.1157766977946,88.77599954605103L204.20986557006833,88.77599954605103L207.30395444234213,88.77599954605103L210.39804331461588,88.77599954605103L213.49213218688968,88.77599954605103L216.58622105916342,88.77599954605103L219.68030993143717,88.77599954605103L222.77439880371094,88.77599954605103L225.8684876759847,88.77599954605103L228.96257654825845,88.77599954605103L219.68030993143717,88.77599954605103L222.77439880371094,88.77599954605103L225.8684876759847,88.77599954605103L228.96257654825845,88.77599954605103L232.05666542053223,88.77599954605103L235.150754292806,88.77599954605103L238.24484316507974,88.77599954605103L241.33893203735352,88.77599954605103L244.4330209096273,88.77599954605103L247.52710978190103,88.77599954605103" fill="none"></path></g><g><path style="fill: none;" stroke="rgb(0, 119, 187)" stroke-width="2px" d="M30.94088872273763,88.77599954605103L61.88177744547526,88.77599954605103L92.82266616821289,88.77599954605103L123.76355489095052,88.77599954605103L123.76355489095052,88.77599954605103L154.70444361368817,88.77599954605103L185.64533233642578,88.77599954605103L216.58622105916342,88.77599954605103L247.52710978190103,88.77599954605103" fill="none"></path></g></g></g></g></g></g><g transform="translate(51, 177)" clip-path="url(#clip_1)"><clipPath id="clip_1"><rect width="278" height="22"></rect></clipPath><g><g><line x1="0" y1="0" x2="0" y2="5" style="visibility: inherit;" fill="rgb(0, 0, 0)" stroke="rgb(204, 204, 204)" stroke-width="1px"></line><line x1="30.94088872273763" y1="0" x2="30.94088872273763" y2="5" style="visibility: inherit;" fill="rgb(0, 0, 0)" stroke="rgb(204, 204, 204)" stroke-width="1px"></line><line x1="61.88177744547526" y1="0" x2="61.88177744547526" y2="5" style="visibility: inherit;" fill="rgb(0, 0, 0)" stroke="rgb(204, 204, 204)" stroke-width="1px"></line><line x1="92.82266616821289" y1="0" x2="92.82266616821289" y2="5" style="visibility: inherit;" fill="rgb(0, 0, 0)" stroke="rgb(204, 204, 204)" stroke-width="1px"></line><line x1="123.76355489095052" y1="0" x2="123.76355489095052" y2="5" style="visibility: inherit;" fill="rgb(0, 0, 0)" stroke="rgb(204, 204, 204)" stroke-width="1px"></line><line x1="154.70444361368817" y1="0" x2="154.70444361368817" y2="5" style="visibility: inherit;" fill="rgb(0, 0, 0)" stroke="rgb(204, 204, 204)" stroke-width="1px"></line><line x1="185.64533233642578" y1="0" x2="185.64533233642578" y2="5" style="visibility: inherit;" fill="rgb(0, 0, 0)" stroke="rgb(204, 204, 204)" stroke-width="1px"></line><line x1="216.58622105916342" y1="0" x2="216.58622105916342" y2="5" style="visibility: inherit;" fill="rgb(0, 0, 0)" stroke="rgb(204, 204, 204)" stroke-width="1px"></line><line x1="247.52710978190103" y1="0" x2="247.52710978190103" y2="5" style="visibility: inherit;" fill="rgb(0, 0, 0)" stroke="rgb(204, 204, 204)" stroke-width="1px"></line><line x1="278.4679985046387" y1="0" x2="278.4679985046387" y2="5" style="visibility: inherit;" fill="rgb(0, 0, 0)" stroke="rgb(204, 204, 204)" stroke-width="1px"></line></g><g transform="translate(0, 8)"><text style="text-anchor: middle; visibility: hidden; font-family: Roboto, sans-serif; font-size: 12px; font-weight: 200;" x="0" y="0" dx="0em" dy="0.95em" fill="rgb(50, 49, 63)" stroke="none" stroke-width="1px">-1k</text><text style="text-anchor: middle; visibility: inherit; font-family: Roboto, sans-serif; font-size: 12px; font-weight: 200;" x="30.94088872273763" y="0" dx="0em" dy="0.95em" fill="rgb(50, 49, 63)" stroke="none" stroke-width="1px">0</text><text style="text-anchor: middle; visibility: inherit; font-family: Roboto, sans-serif; font-size: 12px; font-weight: 200;" x="61.88177744547526" y="0" dx="0em" dy="0.95em" fill="rgb(50, 49, 63)" stroke="none" stroke-width="1px">1k</text><text style="text-anchor: middle; visibility: inherit; font-family: Roboto, sans-serif; font-size: 12px; font-weight: 200;" x="92.82266616821289" y="0" dx="0em" dy="0.95em" fill="rgb(50, 49, 63)" stroke="none" stroke-width="1px">2k</text><text style="text-anchor: middle; visibility: inherit; font-family: Roboto, sans-serif; font-size: 12px; font-weight: 200;" x="123.76355489095052" y="0" dx="0em" dy="0.95em" fill="rgb(50, 49, 63)" stroke="none" stroke-width="1px">3k</text><text style="text-anchor: middle; visibility: inherit; font-family: Roboto, sans-serif; font-size: 12px; font-weight: 200;" x="154.70444361368817" y="0" dx="0em" dy="0.95em" fill="rgb(50, 49, 63)" stroke="none" stroke-width="1px">4k</text><text style="text-anchor: middle; visibility: inherit; font-family: Roboto, sans-serif; font-size: 12px; font-weight: 200;" x="185.64533233642578" y="0" dx="0em" dy="0.95em" fill="rgb(50, 49, 63)" stroke="none" stroke-width="1px">5k</text><text style="text-anchor: middle; visibility: inherit; font-family: Roboto, sans-serif; font-size: 12px; font-weight: 200;" x="216.58622105916342" y="0" dx="0em" dy="0.95em" fill="rgb(50, 49, 63)" stroke="none" stroke-width="1px">6k</text><text style="text-anchor: middle; visibility: inherit; font-family: Roboto, sans-serif; font-size: 12px; font-weight: 200;" x="247.52710978190103" y="0" dx="0em" dy="0.95em" fill="rgb(50, 49, 63)" stroke="none" stroke-width="1px">7k</text><text style="text-anchor: middle; visibility: hidden; font-family: Roboto, sans-serif; font-size: 12px; font-weight: 200;" x="278.4679985046387" y="0" dx="0em" dy="0.95em" fill="rgb(50, 49, 63)" stroke="none" stroke-width="1px">8k</text></g><line x1="0" y1="0" x2="278.4679985046387" y2="0" fill="rgb(0, 0, 0)" stroke="rgb(204, 204, 204)" stroke-width="1px"></line></g></g></g></g></svg>