<svg viewBox="0 0 330 200" xmlns="http://www.w3.org/2000/svg"><g><g><g><g><g><line x1="61.91500186920166" y1="177.55199909210205" x2="56.91500186920166" y2="177.55199909210205" style="visibility: inherit;" fill="rgb(0, 0, 0)" stroke="rgb(204, 204, 204)" stroke-width="1px"></line><line x1="61.91500186920166" y1="155.3579992055893" x2="56.91500186920166" y2="155.3579992055893" style="visibility: inherit;" fill="rgb(0, 0, 0)" stroke="rgb(204, 204, 204)" stroke-width="1px"></line><line x1="61.91500186920166" y1="133.16399931907654" x2="56.91500186920166" y2="133.16399931907654" style="visibility: inherit;" fill="rgb(0, 0, 0)" stroke="rgb(204, 204, 204)" stroke-width="1px"></line><line x1="61.91500186920166" y1="110.96999943256377" x2="56.91500186920166" y2="110.96999943256377" style="visibility: inherit;" fill="rgb(0, 0, 0)" stroke="rgb(204, 204, 204)" stroke-width="1px"></line><line x1="61.91500186920166" y1="88.77599954605101" x2="56.91500186920166" y2="88.77599954605101" style="visibility: inherit;" fill="rgb(0, 0, 0)" stroke="rgb(204, 204, 204)" stroke-width="1px"></line><line x1="61.91500186920166" y1="66.58199965953827" x2="56.91500186920166" y2="66.58199965953827" style="visibility: inherit;" fill="rgb(0, 0, 0)" stroke="rgb(204, 204, 204)" stroke-width="1px"></line><line x1="61.91500186920166" y1="44.38799977302551" x2="56.91500186920166" y2="44.38799977302551" style="visibility: inherit;" fill="rgb(0, 0, 0)" stroke="rgb(204, 204, 204)" stroke-width="1px"></line><line x1="61.91500186920166" y1="22.193999886512756" x2="56.91500186920166" y2="22.193999886512756" style="visibility: inherit;" fill="rgb(0, 0, 0)" stroke="rgb(204, 204, 204)" stroke-width="1px"></line><line x1="61.91500186920166" y1="0" x2="56.91500186920166" y2="0" style="visibility: inherit;" fill="rgb(0, 0, 0)" stroke="rgb(204, 204, 204)" stroke-width="1px"></line></g><g transform="translate(51.91500186920166, 0)"><text style="text-anchor: end; visibility: hidden; font-family: Roboto, sans-serif; font-size: 12px; font-weight: 200;" x="0" y="177.55199909210205" dx="0em" dy="0.3em" fill="rgb(50, 49, 63)" stroke="none" stroke-width="1px">-0.05</text><text style="text-anchor: end; visibility: inherit; font-family: Roboto, sans-serif; font-size: 12px; font-weight: 200;" x="0" y="155.3579992055893" dx="0em" dy="0.3em" fill="rgb(50, 49, 63)" stroke="none" stroke-width="1px">0</text><text style="text-anchor: end; visibility: hidden; font-family: Roboto, sans-serif; font-size: 12px; font-weight: 200;" x="0" y="133.16399931907654" dx="0em" dy="0.3em" fill="rgb(50, 49, 63)" stroke="none" stroke-width="1px">0.05</text><text style="text-anchor: end; visibility: inherit; font-family: Roboto, sans-serif; font-size: 12px; font-weight: 200;" x="0" y="110.96999943256377" dx="0em" dy="0.3em" fill="rgb(50, 49, 63)" stroke="none" stroke-width="1px">0.1</text><text style="text-anchor: end; visibility: hidden; font-family: Roboto, sans-serif; font-size: 12px; font-weight: 200;" x="0" y="88.77599954605101" dx="0em" dy="0.3em" fill="rgb(50, 49, 63)" stroke="none" stroke-width="1px">0.15</text><text style="text-anchor: end; visibility: inherit; font-family: Roboto, sans-serif; font-size: 12px; font-weight: 200;" x="0" y="66.58199965953827" dx="0em" dy="0.3em" fill="rgb(50, 49, 63)" stroke="none" stroke-width="1px">0.2</text><text style="text-anchor: end; visibility: hidden; font-family: Roboto, sans-serif; font-size: 12px; font-weight: 200;" x="0" y="44.38799977302551" dx="0em" dy="0.3em" fill="rgb(50, 49, 63)" stroke="none" stroke-width="1px">0.25</text><text style="text-anchor: end; visibility: inherit; font-family: Roboto, sans-serif; font-size: 12px; font-weight: 200;" x="0" y="22.193999886512756" dx="0em" dy="0.3em" fill="rgb(50, 49, 63)" stroke="none" stroke-width="1px">0.3</text><text style="text-anchor: end; visibility: hidden; font-family: Roboto, sans-serif; font-size: 12px; font-weight: 200;" x="0" y="0" dx="0em" dy="0.3em" fill="rgb(50, 49, 63)" stroke="none" stroke-width="1px">0.35</text></g><line x1="61.91500186920166" y1="0" x2="61.91500186920166" y2="177.55199909210205" fill="rgb(0, 0, 0)" stroke="rgb(204, 204, 204)" stroke-width="1px"></line></g></g><g transform="translate(61, 0)" clip-path="url(#clip_0)"><clipPath id="clip_0"><rect width="268" height="177"></rect></clipPath><g><g><g><line x1="0" y1="0" x2="0" y2="177.55199909210205" fill="rgb(0, 0, 0)" stroke="rgb(60, 60, 60)" stroke-width="1px" opacity="0.25"></line><line x1="29.787222014533146" y1="0" x2="29.787222014533146" y2="177.55199909210205" fill="rgb(0, 0, 0)" stroke="rgb(60, 60, 60)" stroke-width="1px" opacity="0.25"></line><line x1="59.57444402906629" y1="0" x2="59.57444402906629" y2="177.55199909210205" fill="rgb(0, 0, 0)" stroke="rgb(60, 60, 60)" stroke-width="1px" opacity="0.25"></line><line x1="89.36166604359944" y1="0" x2="89.36166604359944" y2="177.55199909210205" fill="rgb(0, 0, 0)" stroke="rgb(60, 60, 60)" stroke-width="1px" opacity="0.25"></line><line x1="119.14888805813258" y1="0" x2="119.14888805813258" y2="177.55199909210205" fill="rgb(0, 0, 0)" stroke="rgb(60, 60, 60)" stroke-width="1px" opacity="0.25"></line><line x1="148.93611007266574" y1="0" x2="148.93611007266574" y2="177.55199909210205" fill="rgb(0, 0, 0)" stroke="rgb(60, 60, 60)" stroke-width="1px" opacity="0.25"></line><line x1="178.72333208719888" y1="0" x2="178.72333208719888" y2="177.55199909210205" fill="rgb(0, 0, 0)" stroke="rgb(60, 60, 60)" stroke-width="1px" opacity="0.25"></line><line x1="208.51055410173205" y1="0" x2="208.51055410173205" y2="177.55199909210205" fill="rgb(0, 0, 0)" stroke="rgb(60, 60, 60)" stroke-width="1px" opacity="0.25"></line><line x1="238.29777611626517" y1="0" x2="238.29777611626517" y2="177.55199909210205" fill="rgb(0, 0, 0)" stroke="rgb(60, 60, 60)" stroke-width="1px" opacity="0.25"></line><line x1="268.08499813079834" y1="0" x2="268.08499813079834" y2="177.55199909210205" fill="rgb(0, 0, 0)" stroke="rgb(60, 60, 60)" stroke-width="1px" opacity="0.25"></line></g><g><line x1="0" y1="177.55199909210205" x2="268.08499813079834" y2="177.55199909210205" fill="rgb(0, 0, 0)" stroke="rgb(60, 60, 60)" stroke-width="1px" opacity="0.25"></line><line x1="0" y1="155.3579992055893" x2="268.08499813079834" y2="155.3579992055893" fill="rgb(0, 0, 0)" stroke="rgb(60, 60, 60)" stroke-width="1px" opacity="0.25"></line><line x1="0" y1="133.16399931907654" x2="268.08499813079834" y2="133.16399931907654" fill="rgb(0, 0, 0)" stroke="rgb(60, 60, 60)" stroke-width="1px" opacity="0.25"></line><line x1="0" y1="110.96999943256377" x2="268.08499813079834" y2="110.96999943256377" fill="rgb(0, 0, 0)" stroke="rgb(60, 60, 60)" stroke-width="1px" opacity="0.25"></line><line x1="0" y1="88.77599954605101" x2="268.08499813079834" y2="88.77599954605101" fill="rgb(0, 0, 0)" stroke="rgb(60, 60, 60)" stroke-width="1px" opacity="0.25"></line><line x1="0" y1="66.58199965953827" x2="268.08499813079834" y2="66.58199965953827" fill="rgb(0, 0, 0)" stroke="rgb(60, 60, 60)" stroke-width="1px" opacity="0.25"></line><line x1="0" y1="44.38799977302551" x2="268.08499813079834" y2="44.38799977302551" fill="rgb(0, 0, 0)" stroke="rgb(60, 60, 60)" stroke-width="1px" opacity="0.25"></line><line x1="0" y1="22.193999886512756" x2="268.08499813079834" y2="22.193999886512756" fill="rgb(0, 0, 0)" stroke="rgb(60, 60, 60)" stroke-width="1px" opacity="0.25"></line><line x1="0" y1="0" x2="268.08499813079834" y2="0" fill="rgb(0, 0, 0)" stroke="rgb(60, 60, 60)" stroke-width="1px" opacity="0.25"></line></g></g></g><g><g><line x1="0" y1="155.3579992055893" x2="268.08499813079834" y2="155.3579992055893" fill="rgb(0, 0, 0)" stroke="rgb(153, 153, 153)" stroke-width="1.5px"></line></g></g><g><g><line x1="29.787222014533146" y1="0" x2="29.787222014533146" y2="177.55199909210205" fill="rgb(0, 0, 0)" stroke="rgb(153, 153, 153)" stroke-width="1.5px"></line></g></g><g><g><g><g><g><path style="fill: none;" stroke="rgb(255, 112, 67)" stroke-width="2px" d="M32.765944215986465,-107.22709442812804L35.74466641743978,22.28045212203761L38.72338861889309,49.490184477923044L41.70211082034641,55.534726005931894L44.68083302179972,86.60160853472887L47.65955522325304,27.263938261034216L50.63827742470635,46.73682723405112L53.61699962615967,79.71146280844422L56.595721827612984,87.17557354133636L59.57444402906629,97.76039685615356L62.553166230519615,96.34862172090698L65.53188843197293,110.65147077612735L68.51061063342624,114.61902179279494L71.48933283487956,125.54345538813693L74.46805503633287,130.04576623591822L77.44677723778618,128.65938873712864L80.4254994392395,138.25788479398554L83.40422164069282,143.49270558253335L86.38294384214613,145.1597524824891L89.36166604359944,142.37370674134513L92.34038824505276,145.8382172322714L95.31911044650607,147.7528074769199L98.29783264795938,134.56410690110377L101.2765548494127,139.89675061959522L104.25527705086603,143.00166111698167L107.23399925231934,136.42681293883396L110.21272145377264,136.17386718331394L113.19144365522597,134.8874860758911L116.17016585667929,142.3596015317709L119.14888805813258,147.1753689986778L122.12761025958591,140.1978054207451L125.10633246103923,139.98245942116102L128.08505466249255,133.06247303780304L122.12761025958591,135.6465556264026L125.10633246103923,140.83088624060028L128.08505466249255,145.97402633194406L131.06377686394586,149.27188036563237L134.04249906539917,149.1142994931951L137.02122126685248,147.9361268677656L139.99994346830582,150.24417936494797L142.97866566975912,151.39743420557085L145.9573878712124,150.10161769030714L148.93611007266574,151.41415693413197L151.91483227411905,146.14706482499733L154.89355447557236,140.5120966659581L157.8722766770257,145.4997907402513L160.850998878479,141.96926449157903L163.82972107993234,146.04858988395802L166.80844328138565,144.9953329141572L169.78716548283893,148.23110006332882L172.76588768429227,150.96143727069023L175.74460988574558,140.57878283188182L178.72333208719888,143.53376615075965L181.70205428865222,136.98128736535548L184.68077649010553,143.99270853238778L187.65949869155884,148.42195104211137L190.63822089301215,148.22142410049875L193.61694309446546,149.86430754448247L196.59566529591876,147.65918768648615L199.5743874973721,145.5135123777505L202.5531096988254,148.80951950031823L205.53183190027875,151.04253168563787L208.51055410173205,150.7169791388268L211.48927630318536,142.7593385429794L214.46799850463867,147.57636235757232L217.44672070609198,150.4214733617806L220.4254429075453,148.72623327953437L223.40416510899863,150.13231562086068L211.48927630318536,147.5613660474833L214.46799850463867,142.8627554345042L217.44672070609198,147.0585497465723L220.4254429075453,150.2643905580213L223.40416510899863,152.12965851722214L226.38288731045193,151.24757674811843L229.36160951190524,150.53314685859965L232.34033171335858,152.08485711731788L235.31905391481186,152.85623139189016L238.29777611626517,148.44719985876853" fill="none"></path></g><g><path style="fill: none;" stroke="rgb(0, 119, 187)" stroke-width="2px" d="M89.36166604359944,-1.9200845603816759L119.14888805813258,26.20923985382191L119.14888805813258,40.55695216779805L148.93611007266574,85.37166030187129L178.72333208719888,95.71824372944369L208.51055410173205,91.71316266522463L238.29777611626517,101.39343294462428" fill="none"></path></g></g></g></g><g opacity="0.2"><g><g><g><path style="fill: none;" stroke="rgb(255, 112, 67)" stroke-width="2px" d="M32.765944215986465,-107.22709442812804L35.74466641743978,99.98498005213698L38.72338861889309,75.61152753957309L41.70211082034641,62.643106842870324L44.68083302179972,127.16253036432622L47.65955522325304,-54.82142128878405L50.63827742470635,74.58337003168886L53.61699962615967,127.78879803241091L56.595721827612984,98.18368704348352L59.57444402906629,113.4776258810087L62.553166230519615,94.24376371460713L65.53188843197293,132.02790888601328L68.51061063342624,120.55739357534095L71.48933283487956,141.90870367847685L74.46805503633287,136.79394021019883L77.44677723778618,126.58080026976859L80.4254994392395,152.6515671174225L83.40422164069282,151.34360764492396L86.38294384214613,147.66006887460634L89.36166604359944,138.1948927852455L92.34038824505276,151.03479296667177L95.31911044650607,150.6246298434851L98.29783264795938,114.78131642526574L101.2765548494127,147.89565302708368L104.25527705086603,147.65900479468635L107.23399925231934,126.56456871033657L110.21272145377264,135.7944491972528L113.19144365522597,132.95791638965486L116.17016585667929,153.56776783271624L119.14888805813258,154.39901753743672L122.12761025958591,129.73146236768207L125.10633246103923,139.6594404646315L128.08505466249255,122.68249428887351L122.12761025958591,139.52267932420943L125.10633246103923,148.607381939091L128.08505466249255,153.6887363363384L131.06377686394586,154.21866136514166L134.04249906539917,148.87792818600198L137.02122126685248,146.16886793618357L139.99994346830582,153.70625810300825L142.97866566975912,153.12731646419275L145.9573878712124,148.15789291897056L148.93611007266574,153.3829657989218L151.91483227411905,138.24642666357659L154.89355447557236,132.0596444288636L157.8722766770257,152.98133185091342L160.850998878479,136.67347511890088L163.82972107993234,152.16757797229755L166.80844328138565,143.41544745949142L169.78716548283893,153.0847507870209L172.76588768429227,155.05694308169927L175.74460988574558,125.00480117374474L178.72333208719888,147.96624112906343L181.70205428865222,127.1525691872665L184.68077649010553,154.50984028292524L187.65949869155884,155.06581480669252L190.63822089301215,147.92063368807993L193.61694309446546,152.32863271045753L196.59566529591876,144.3515078994921L199.5743874973721,142.2949994146473L202.5531096988254,153.7535301841696L205.53183190027875,154.39204996361727L208.51055410173205,150.22865031861016L211.48927630318536,130.82287764920844L214.46799850463867,154.80189807946167L217.44672070609198,154.68913986809306L220.4254429075453,146.18337315616498L223.40416510899863,152.2414391328501L211.48927630318536,143.70494168741723L214.46799850463867,135.81483951503557L217.44672070609198,153.35224121467454L220.4254429075453,155.07315177519476L223.40416510899863,154.92756045602337L226.38288731045193,149.92445409446287L229.36160951190524,149.4615020243215L232.34033171335858,154.4124225053952L235.31905391481186,154.0132928037486L238.29777611626517,141.83365255908606" fill="none"></path></g><g><path style="fill: none;" stroke="rgb(0, 119, 187)" stroke-width="2px" d="M29.787222014533146,-252.05572997620132L59.57444402906629,136.83296474184056L89.36166604359944,4.876918207980054L119.14888805813258,59.28932536492532L119.14888805813258,59.28932536492532L148.93611007266574,147.36653494622286L178.72333208719888,110.51402357620702L208.51055410173205,85.87371602481508L238.29777611626517,115.66995131103968" fill="none"></path></g></g></g></g></g></g><g transform="translate(61, 177)" clip-path="url(#clip_1)"><clipPath id="clip_1"><rect width="268" height="22"></rect></clipPath><g><g><line x1="0" y1="0" x2="0" y2="5" style="visibility: inherit;" fill="rgb(0, 0, 0)" stroke="rgb(204, 204, 204)" stroke-width="1px"></line><line x1="29.787222014533146" y1="0" x2="29.787222014533146" y2="5" style="visibility: inherit;" fill="rgb(0, 0, 0)" stroke="rgb(204, 204, 204)" stroke-width="1px"></line><line x1="59.57444402906629" y1="0" x2="59.57444402906629" y2="5" style="visibility: inherit;" fill="rgb(0, 0, 0)" stroke="rgb(204, 204, 204)" stroke-width="1px"></line><line x1="89.36166604359944" y1="0" x2="89.36166604359944" y2="5" style="visibility: inherit;" fill="rgb(0, 0, 0)" stroke="rgb(204, 204, 204)" stroke-width="1px"></line><line x1="119.14888805813258" y1="0" x2="119.14888805813258" y2="5" style="visibility: inherit;" fill="rgb(0, 0, 0)" stroke="rgb(204, 204, 204)" stroke-width="1px"></line><line x1="148.93611007266574" y1="0" x2="148.93611007266574" y2="5" style="visibility: inherit;" fill="rgb(0, 0, 0)" stroke="rgb(204, 204, 204)" stroke-width="1px"></line><line x1="178.72333208719888" y1="0" x2="178.72333208719888" y2="5" style="visibility: inherit;" fill="rgb(0, 0, 0)" stroke="rgb(204, 204, 204)" stroke-width="1px"></line><line x1="208.51055410173205" y1="0" x2="208.51055410173205" y2="5" style="visibility: inherit;" fill="rgb(0, 0, 0)" stroke="rgb(204, 204, 204)" stroke-width="1px"></line><line x1="238.29777611626517" y1="0" x2="238.29777611626517" y2="5" style="visibility: inherit;" fill="rgb(0, 0, 0)" stroke="rgb(204, 204, 204)" stroke-width="1px"></line><line x1="268.08499813079834" y1="0" x2="268.08499813079834" y2="5" style="visibility: inherit;" fill="rgb(0, 0, 0)" stroke="rgb(204, 204, 204)" stroke-width="1px"></line></g><g transform="translate(0, 8)"><text style="text-anchor: middle; visibility: hidden; font-family: Roboto, sans-serif; font-size: 12px; font-weight: 200;" x="0" y="0" dx="0em" dy="0.95em" fill="rgb(50, 49, 63)" stroke="none" stroke-width="1px">-1k</text><text style="text-anchor: middle; visibility: inherit; font-family: Roboto, sans-serif; font-size: 12px; font-weight: 200;" x="29.787222014533146" y="0" dx="0em" dy="0.95em" fill="rgb(50, 49, 63)" stroke="none" stroke-width="1px">0</text><text style="text-anchor: middle; visibility: inherit; font-family: Roboto, sans-serif; font-size: 12px; font-weight: 200;" x="59.57444402906629" y="0" dx="0em" dy="0.95em" fill="rgb(50, 49, 63)" stroke="none" stroke-width="1px">1k</text><text style="text-anchor: middle; visibility: inherit; font-family: Roboto, sans-serif; font-size: 12px; font-weight: 200;" x="89.36166604359944" y="0" dx="0em" dy="0.95em" fill="rgb(50, 49, 63)" stroke="none" stroke-width="1px">2k</text><text style="text-anchor: middle; visibility: inherit; font-family: Roboto, sans-serif; font-size: 12px; font-weight: 200;" x="119.14888805813258" y="0" dx="0em" dy="0.95em" fill="rgb(50, 49, 63)" stroke="none" stroke-width="1px">3k</text><text style="text-anchor: middle; visibility: inherit; font-family: Roboto, sans-serif; font-size: 12px; font-weight: 200;" x="148.93611007266574" y="0" dx="0em" dy="0.95em" fill="rgb(50, 49, 63)" stroke="none" stroke-width="1px">4k</text><text style="text-anchor: middle; visibility: inherit; font-family: Roboto, sans-serif; font-size: 12px; font-weight: 200;" x="178.72333208719888" y="0" dx="0em" dy="0.95em" fill="rgb(50, 49, 63)" stroke="none" stroke-width="1px">5k</text><text style="text-anchor: middle; visibility: inherit; font-family: Roboto, sans-serif; font-size: 12px; font-weight: 200;" x="208.51055410173205" y="0" dx="0em" dy="0.95em" fill="rgb(50, 49, 63)" stroke="none" stroke-width="1px">6k</text><text style="text-anchor: middle; visibility: inherit; font-family: Roboto, sans-serif; font-size: 12px; font-weight: 200;" x="238.29777611626517" y="0" dx="0em" dy="0.95em" fill="rgb(50, 49, 63)" stroke="none" stroke-width="1px">7k</text><text style="text-anchor: middle; visibility: hidden; font-family: Roboto, sans-serif; font-size: 12px; font-weight: 200;" x="268.08499813079834" y="0" dx="0em" dy="0.95em" fill="rgb(50, 49, 63)" stroke="none" stroke-width="1px">8k</text></g><line x1="0" y1="0" x2="268.08499813079834" y2="0" fill="rgb(0, 0, 0)" stroke="rgb(204, 204, 204)" stroke-width="1px"></line></g></g></g></g></svg>