<svg viewBox="0 0 330 200" xmlns="http://www.w3.org/2000/svg"><g><g><g><g><g><line x1="51.53200149536133" y1="177.55199909210205" x2="46.53200149536133" y2="177.55199909210205" style="visibility: inherit;" fill="rgb(0, 0, 0)" stroke="rgb(204, 204, 204)" stroke-width="1px"></line><line x1="51.53200149536133" y1="155.96561067811734" x2="46.53200149536133" y2="155.96561067811734" style="visibility: inherit;" fill="rgb(0, 0, 0)" stroke="rgb(204, 204, 204)" stroke-width="1px"></line><line x1="51.53200149536133" y1="134.3792222641326" x2="46.53200149536133" y2="134.3792222641326" style="visibility: inherit;" fill="rgb(0, 0, 0)" stroke="rgb(204, 204, 204)" stroke-width="1px"></line><line x1="51.53200149536133" y1="112.79283385014791" x2="46.53200149536133" y2="112.79283385014791" style="visibility: inherit;" fill="rgb(0, 0, 0)" stroke="rgb(204, 204, 204)" stroke-width="1px"></line><line x1="51.53200149536133" y1="91.20644543616318" x2="46.53200149536133" y2="91.20644543616318" style="visibility: inherit;" fill="rgb(0, 0, 0)" stroke="rgb(204, 204, 204)" stroke-width="1px"></line><line x1="51.53200149536133" y1="69.62005702217847" x2="46.53200149536133" y2="69.62005702217847" style="visibility: inherit;" fill="rgb(0, 0, 0)" stroke="rgb(204, 204, 204)" stroke-width="1px"></line><line x1="51.53200149536133" y1="48.03366860819377" x2="46.53200149536133" y2="48.03366860819377" style="visibility: inherit;" fill="rgb(0, 0, 0)" stroke="rgb(204, 204, 204)" stroke-width="1px"></line><line x1="51.53200149536133" y1="26.447280194209046" x2="46.53200149536133" y2="26.447280194209046" style="visibility: inherit;" fill="rgb(0, 0, 0)" stroke="rgb(204, 204, 204)" stroke-width="1px"></line><line x1="51.53200149536133" y1="4.860891780224338" x2="46.53200149536133" y2="4.860891780224338" style="visibility: inherit;" fill="rgb(0, 0, 0)" stroke="rgb(204, 204, 204)" stroke-width="1px"></line></g><g transform="translate(41.53200149536133, 0)"><text style="text-anchor: end; visibility: hidden; font-family: Roboto, sans-serif; font-size: 12px; font-weight: 200;" x="0" y="177.55199909210205" dx="0em" dy="0.3em" fill="rgb(50, 49, 63)" stroke="none" stroke-width="1px">0</text><text style="text-anchor: end; visibility: inherit; font-family: Roboto, sans-serif; font-size: 12px; font-weight: 200;" x="0" y="155.96561067811734" dx="0em" dy="0.3em" fill="rgb(50, 49, 63)" stroke="none" stroke-width="1px">0.01</text><text style="text-anchor: end; visibility: hidden; font-family: Roboto, sans-serif; font-size: 12px; font-weight: 200;" x="0" y="134.3792222641326" dx="0em" dy="0.3em" fill="rgb(50, 49, 63)" stroke="none" stroke-width="1px">0.02</text><text style="text-anchor: end; visibility: inherit; font-family: Roboto, sans-serif; font-size: 12px; font-weight: 200;" x="0" y="112.79283385014791" dx="0em" dy="0.3em" fill="rgb(50, 49, 63)" stroke="none" stroke-width="1px">0.03</text><text style="text-anchor: end; visibility: hidden; font-family: Roboto, sans-serif; font-size: 12px; font-weight: 200;" x="0" y="91.20644543616318" dx="0em" dy="0.3em" fill="rgb(50, 49, 63)" stroke="none" stroke-width="1px">0.04</text><text style="text-anchor: end; visibility: inherit; font-family: Roboto, sans-serif; font-size: 12px; font-weight: 200;" x="0" y="69.62005702217847" dx="0em" dy="0.3em" fill="rgb(50, 49, 63)" stroke="none" stroke-width="1px">0.05</text><text style="text-anchor: end; visibility: hidden; font-family: Roboto, sans-serif; font-size: 12px; font-weight: 200;" x="0" y="48.03366860819377" dx="0em" dy="0.3em" fill="rgb(50, 49, 63)" stroke="none" stroke-width="1px">0.06</text><text style="text-anchor: end; visibility: inherit; font-family: Roboto, sans-serif; font-size: 12px; font-weight: 200;" x="0" y="26.447280194209046" dx="0em" dy="0.3em" fill="rgb(50, 49, 63)" stroke="none" stroke-width="1px">0.07</text><text style="text-anchor: end; visibility: hidden; font-family: Roboto, sans-serif; font-size: 12px; font-weight: 200;" x="0" y="4.860891780224338" dx="0em" dy="0.3em" fill="rgb(50, 49, 63)" stroke="none" stroke-width="1px">0.08</text></g><line x1="51.53200149536133" y1="0" x2="51.53200149536133" y2="177.55199909210205" fill="rgb(0, 0, 0)" stroke="rgb(204, 204, 204)" stroke-width="1px"></line></g></g><g transform="translate(51, 0)" clip-path="url(#clip_0)"><clipPath id="clip_0"><rect width="278" height="177"></rect></clipPath><g><g><g><line x1="0" y1="0" x2="0" y2="177.55199909210205" fill="rgb(0, 0, 0)" stroke="rgb(60, 60, 60)" stroke-width="1px" opacity="0.25"></line><line x1="30.94088872273763" y1="0" x2="30.94088872273763" y2="177.55199909210205" fill="rgb(0, 0, 0)" stroke="rgb(60, 60, 60)" stroke-width="1px" opacity="0.25"></line><line x1="61.88177744547526" y1="0" x2="61.88177744547526" y2="177.55199909210205" fill="rgb(0, 0, 0)" stroke="rgb(60, 60, 60)" stroke-width="1px" opacity="0.25"></line><line x1="92.82266616821289" y1="0" x2="92.82266616821289" y2="177.55199909210205" fill="rgb(0, 0, 0)" stroke="rgb(60, 60, 60)" stroke-width="1px" opacity="0.25"></line><line x1="123.76355489095052" y1="0" x2="123.76355489095052" y2="177.55199909210205" fill="rgb(0, 0, 0)" stroke="rgb(60, 60, 60)" stroke-width="1px" opacity="0.25"></line><line x1="154.70444361368817" y1="0" x2="154.70444361368817" y2="177.55199909210205" fill="rgb(0, 0, 0)" stroke="rgb(60, 60, 60)" stroke-width="1px" opacity="0.25"></line><line x1="185.64533233642578" y1="0" x2="185.64533233642578" y2="177.55199909210205" fill="rgb(0, 0, 0)" stroke="rgb(60, 60, 60)" stroke-width="1px" opacity="0.25"></line><line x1="216.58622105916342" y1="0" x2="216.58622105916342" y2="177.55199909210205" fill="rgb(0, 0, 0)" stroke="rgb(60, 60, 60)" stroke-width="1px" opacity="0.25"></line><line x1="247.52710978190103" y1="0" x2="247.52710978190103" y2="177.55199909210205" fill="rgb(0, 0, 0)" stroke="rgb(60, 60, 60)" stroke-width="1px" opacity="0.25"></line><line x1="278.4679985046387" y1="0" x2="278.4679985046387" y2="177.55199909210205" fill="rgb(0, 0, 0)" stroke="rgb(60, 60, 60)" stroke-width="1px" opacity="0.25"></line></g><g><line x1="0" y1="177.55199909210205" x2="278.4679985046387" y2="177.55199909210205" fill="rgb(0, 0, 0)" stroke="rgb(60, 60, 60)" stroke-width="1px" opacity="0.25"></line><line x1="0" y1="155.96561067811734" x2="278.4679985046387" y2="155.96561067811734" fill="rgb(0, 0, 0)" stroke="rgb(60, 60, 60)" stroke-width="1px" opacity="0.25"></line><line x1="0" y1="134.3792222641326" x2="278.4679985046387" y2="134.3792222641326" fill="rgb(0, 0, 0)" stroke="rgb(60, 60, 60)" stroke-width="1px" opacity="0.25"></line><line x1="0" y1="112.79283385014791" x2="278.4679985046387" y2="112.79283385014791" fill="rgb(0, 0, 0)" stroke="rgb(60, 60, 60)" stroke-width="1px" opacity="0.25"></line><line x1="0" y1="91.20644543616318" x2="278.4679985046387" y2="91.20644543616318" fill="rgb(0, 0, 0)" stroke="rgb(60, 60, 60)" stroke-width="1px" opacity="0.25"></line><line x1="0" y1="69.62005702217847" x2="278.4679985046387" y2="69.62005702217847" fill="rgb(0, 0, 0)" stroke="rgb(60, 60, 60)" stroke-width="1px" opacity="0.25"></line><line x1="0" y1="48.03366860819377" x2="278.4679985046387" y2="48.03366860819377" fill="rgb(0, 0, 0)" stroke="rgb(60, 60, 60)" stroke-width="1px" opacity="0.25"></line><line x1="0" y1="26.447280194209046" x2="278.4679985046387" y2="26.447280194209046" fill="rgb(0, 0, 0)" stroke="rgb(60, 60, 60)" stroke-width="1px" opacity="0.25"></line><line x1="0" y1="4.860891780224338" x2="278.4679985046387" y2="4.860891780224338" fill="rgb(0, 0, 0)" stroke="rgb(60, 60, 60)" stroke-width="1px" opacity="0.25"></line></g></g></g><g><g><line x1="0" y1="177.55199909210205" x2="278.4679985046387" y2="177.55199909210205" fill="rgb(0, 0, 0)" stroke="rgb(153, 153, 153)" stroke-width="1.5px"></line></g></g><g><g><line x1="30.94088872273763" y1="0" x2="30.94088872273763" y2="177.55199909210205" fill="rgb(0, 0, 0)" stroke="rgb(153, 153, 153)" stroke-width="1.5px"></line></g></g><g><g><g><g><g><path style="fill: none;" stroke="rgb(255, 112, 67)" stroke-width="2px" d="M34.03497759501139,88.77599954605103L37.129066467285156,122.03133557607725L40.223155339558915,130.9471472975496L43.31724421183268,138.50011441157645L46.411333084106445,124.47748502982861L49.50542195638021,111.47676244068376L52.59951082865397,124.77570964821504L55.693599700927734,139.3556558210798L58.7876885732015,86.69624238691641L61.88177744547526,121.92592113514036L64.97586631774902,140.12638603958987L68.06995519002278,132.98558601779476L71.16404406229654,148.45477848889126L74.25813293457031,158.38335298284497L77.35222180684408,165.2857374315654L80.44631067911783,166.89944681713143L83.5403995513916,169.95711645802496L86.63448842366536,172.38379450682075L89.72857729593913,172.66742174662772L92.82266616821289,173.63542704464436L95.91675504048665,167.05293923728888L99.01084391276042,171.09512446247777L102.10493278503417,173.5225738396262L105.19902165730794,175.10445892949738L108.29311052958171,176.0561015157363L111.38719940185547,155.95865115019856L114.48128827412923,164.13731551160834L117.575377146403,166.52664150556134L120.66946601867676,170.8785513789964L123.76355489095052,173.19751618913995L126.85764376322427,168.21172818537588L129.95173263549805,171.77045140700923L133.04582150777182,174.0083978266414L126.85764376322427,172.9321575130242L129.95173263549805,172.47131627021048L133.04582150777182,174.4529138025023L136.13991038004556,175.6010992086063L139.23399925231934,176.34224333419155L142.32808812459308,176.80133336290982L145.42217699686688,171.30280603368166L148.51626586914062,173.73282777550332L151.61035474141437,175.17952850446773L154.70444361368817,175.94446681282227L157.7985324859619,176.42867185351673L160.89262135823566,176.7765662558348L163.98671023050946,176.89699094018255L167.0807991027832,176.95108828096716L170.17488797505698,177.1334961539931L173.26897684733072,177.23371965028787L176.3630657196045,177.2076752913337L179.45715459187826,176.16752980946578L182.551243464152,176.5552801917566L185.64533233642578,176.87491289527915L188.73942120869955,177.12194737027937L191.8335100809733,177.26844397073125L194.92759895324707,177.3728107964989L198.02168782552084,177.3087613551858L201.1157766977946,177.02440416122286L204.20986557006833,176.47491440603721L207.30395444234213,176.89811193454065L210.39804331461588,175.07773399781672L213.49213218688968,175.99886427546988L216.58622105916342,176.32189804042065L219.68030993143717,176.50957389697567L222.77439880371094,176.88095387918386L225.8684876759847,177.1183665816502L228.96257654825845,177.1304370596902L232.05666542053223,177.29166981492122L219.68030993143717,177.35279670235798L222.77439880371094,177.16590559436196L225.8684876759847,177.30513255142623L228.96257654825845,177.3575784935502L232.05666542053223,177.38207278555498L235.150754292806,177.42611065960114L238.24484316507974,177.34530035802098L241.33893203735352,177.23282251248241L244.4330209096273,176.7015546492558L247.52710978190103,177.0104123204236" fill="none"></path></g><g><path style="fill: none;" fill="none" stroke="none" stroke-width="1px"></path></g></g></g></g><g opacity="0.2"><g><g><g><path style="fill: none;" stroke="rgb(255, 112, 67)" stroke-width="2px" d="M34.03497759501139,88.77599954605103L37.129066467285156,141.984537194093L40.223155339558915,139.50632655016304L43.31724421183268,147.38240373767206L46.411333084106445,106.16954010901867L49.50542195638021,93.49208283976434L52.59951082865397,143.79341693814007L55.693599700927734,160.61335730859986L58.7876885732015,9.033836135990905L61.88177744547526,174.23788826857287L64.97586631774902,167.262006519135L68.06995519002278,122.31324590348301L71.16404406229654,171.60805759815105L74.25813293457031,173.25676361275347L77.35222180684408,175.63120061083217L80.44631067911783,169.31887278259663L83.5403995513916,174.5423270160476L86.63448842366536,176.02319544672073L89.72857729593913,173.0928193985829L92.82266616821289,175.0873465121508L95.91675504048665,157.179568525531L99.01084391276042,177.15826929043445L102.10493278503417,177.1636999795954L105.19902165730794,177.4772678253672L108.29311052958171,177.4835586312264L111.38719940185547,125.81256130833738L114.48128827412923,176.40529112676248L117.575377146403,170.11062682831266L120.66946601867676,177.40641218042492L123.76355489095052,176.67596212269862L126.85764376322427,160.7330478330713L129.95173263549805,177.1085355313925L133.04582150777182,177.3653171889238L126.85764376322427,171.31779711968724L129.95173263549805,171.78005442579536L133.04582150777182,177.42531004984244L136.13991038004556,177.32337729999804L139.23399925231934,177.45395951568932L142.32808812459308,177.48996840343023L145.42217699686688,163.0550150582148L148.51626586914062,177.37786038336333L151.61035474141437,177.34957959617387L154.70444361368817,177.0918742748019L157.7985324859619,177.15497941434873L160.89262135823566,177.2984078592215L163.98671023050946,177.0776279666854L167.0807991027832,177.03223429213898L170.17488797505698,177.40710796352178L173.26897684733072,177.38405489472666L176.3630657196045,177.1686087529029L179.45715459187826,174.6073115866765L182.551243464152,177.13690576519L185.64533233642578,177.35436195056158L188.73942120869955,177.49249908277906L191.8335100809733,177.48818887140885L194.92759895324707,177.52936103515026L198.02168782552084,177.21268719321617L201.1157766977946,176.59786837027858L204.20986557006833,175.65067977325884L207.30395444234213,177.5329082272958L210.39804331461588,172.34716709273096L213.49213218688968,177.38055969194963L216.58622105916342,176.80644868784677L219.68030993143717,176.7910876818082L222.77439880371094,177.43802385249617L225.8684876759847,177.47448563534968L228.96257654825845,177.14854277675016L232.05666542053223,177.53351894776782L219.68030993143717,177.4444870335131L222.77439880371094,176.8855689323679L225.8684876759847,177.5139729870226L228.96257654825845,177.43624740673616L232.05666542053223,177.41881422356215L235.150754292806,177.49216747067038L238.24484316507974,177.22408490565073L241.33893203735352,177.0641057441746L244.4330209096273,175.90465285441593L247.52710978190103,177.47369882717524" fill="none"></path></g><g><path style="fill: none;" fill="none" stroke="none" stroke-width="1px"></path></g></g></g></g></g></g><g transform="translate(51, 177)" clip-path="url(#clip_1)"><clipPath id="clip_1"><rect width="278" height="22"></rect></clipPath><g><g><line x1="0" y1="0" x2="0" y2="5" style="visibility: inherit;" fill="rgb(0, 0, 0)" stroke="rgb(204, 204, 204)" stroke-width="1px"></line><line x1="30.94088872273763" y1="0" x2="30.94088872273763" y2="5" style="visibility: inherit;" fill="rgb(0, 0, 0)" stroke="rgb(204, 204, 204)" stroke-width="1px"></line><line x1="61.88177744547526" y1="0" x2="61.88177744547526" y2="5" style="visibility: inherit;" fill="rgb(0, 0, 0)" stroke="rgb(204, 204, 204)" stroke-width="1px"></line><line x1="92.82266616821289" y1="0" x2="92.82266616821289" y2="5" style="visibility: inherit;" fill="rgb(0, 0, 0)" stroke="rgb(204, 204, 204)" stroke-width="1px"></line><line x1="123.76355489095052" y1="0" x2="123.76355489095052" y2="5" style="visibility: inherit;" fill="rgb(0, 0, 0)" stroke="rgb(204, 204, 204)" stroke-width="1px"></line><line x1="154.70444361368817" y1="0" x2="154.70444361368817" y2="5" style="visibility: inherit;" fill="rgb(0, 0, 0)" stroke="rgb(204, 204, 204)" stroke-width="1px"></line><line x1="185.64533233642578" y1="0" x2="185.64533233642578" y2="5" style="visibility: inherit;" fill="rgb(0, 0, 0)" stroke="rgb(204, 204, 204)" stroke-width="1px"></line><line x1="216.58622105916342" y1="0" x2="216.58622105916342" y2="5" style="visibility: inherit;" fill="rgb(0, 0, 0)" stroke="rgb(204, 204, 204)" stroke-width="1px"></line><line x1="247.52710978190103" y1="0" x2="247.52710978190103" y2="5" style="visibility: inherit;" fill="rgb(0, 0, 0)" stroke="rgb(204, 204, 204)" stroke-width="1px"></line><line x1="278.4679985046387" y1="0" x2="278.4679985046387" y2="5" style="visibility: inherit;" fill="rgb(0, 0, 0)" stroke="rgb(204, 204, 204)" stroke-width="1px"></line></g><g transform="translate(0, 8)"><text style="text-anchor: middle; visibility: hidden; font-family: Roboto, sans-serif; font-size: 12px; font-weight: 200;" x="0" y="0" dx="0em" dy="0.95em" fill="rgb(50, 49, 63)" stroke="none" stroke-width="1px">-1k</text><text style="text-anchor: middle; visibility: inherit; font-family: Roboto, sans-serif; font-size: 12px; font-weight: 200;" x="30.94088872273763" y="0" dx="0em" dy="0.95em" fill="rgb(50, 49, 63)" stroke="none" stroke-width="1px">0</text><text style="text-anchor: middle; visibility: inherit; font-family: Roboto, sans-serif; font-size: 12px; font-weight: 200;" x="61.88177744547526" y="0" dx="0em" dy="0.95em" fill="rgb(50, 49, 63)" stroke="none" stroke-width="1px">1k</text><text style="text-anchor: middle; visibility: inherit; font-family: Roboto, sans-serif; font-size: 12px; font-weight: 200;" x="92.82266616821289" y="0" dx="0em" dy="0.95em" fill="rgb(50, 49, 63)" stroke="none" stroke-width="1px">2k</text><text style="text-anchor: middle; visibility: inherit; font-family: Roboto, sans-serif; font-size: 12px; font-weight: 200;" x="123.76355489095052" y="0" dx="0em" dy="0.95em" fill="rgb(50, 49, 63)" stroke="none" stroke-width="1px">3k</text><text style="text-anchor: middle; visibility: inherit; font-family: Roboto, sans-serif; font-size: 12px; font-weight: 200;" x="154.70444361368817" y="0" dx="0em" dy="0.95em" fill="rgb(50, 49, 63)" stroke="none" stroke-width="1px">4k</text><text style="text-anchor: middle; visibility: inherit; font-family: Roboto, sans-serif; font-size: 12px; font-weight: 200;" x="185.64533233642578" y="0" dx="0em" dy="0.95em" fill="rgb(50, 49, 63)" stroke="none" stroke-width="1px">5k</text><text style="text-anchor: middle; visibility: inherit; font-family: Roboto, sans-serif; font-size: 12px; font-weight: 200;" x="216.58622105916342" y="0" dx="0em" dy="0.95em" fill="rgb(50, 49, 63)" stroke="none" stroke-width="1px">6k</text><text style="text-anchor: middle; visibility: inherit; font-family: Roboto, sans-serif; font-size: 12px; font-weight: 200;" x="247.52710978190103" y="0" dx="0em" dy="0.95em" fill="rgb(50, 49, 63)" stroke="none" stroke-width="1px">7k</text><text style="text-anchor: middle; visibility: hidden; font-family: Roboto, sans-serif; font-size: 12px; font-weight: 200;" x="278.4679985046387" y="0" dx="0em" dy="0.95em" fill="rgb(50, 49, 63)" stroke="none" stroke-width="1px">8k</text></g><line x1="0" y1="0" x2="278.4679985046387" y2="0" fill="rgb(0, 0, 0)" stroke="rgb(204, 204, 204)" stroke-width="1px"></line></g></g></g></g></svg>