<svg viewBox="0 0 330 200" xmlns="http://www.w3.org/2000/svg"><g><g><g><g><g><line x1="51.53200149536133" y1="175.55725772824954" x2="46.53200149536133" y2="175.55725772824954" style="visibility: inherit;" fill="rgb(0, 0, 0)" stroke="rgb(204, 204, 204)" stroke-width="1px"></line><line x1="51.53200149536133" y1="171.69195419462278" x2="46.53200149536133" y2="171.69195419462278" style="visibility: inherit;" fill="rgb(0, 0, 0)" stroke="rgb(204, 204, 204)" stroke-width="1px"></line><line x1="51.53200149536133" y1="168.2343223615884" x2="46.53200149536133" y2="168.2343223615884" style="visibility: inherit;" fill="rgb(0, 0, 0)" stroke="rgb(204, 204, 204)" stroke-width="1px"></line><line x1="51.53200149536133" y1="145.48720745313872" x2="46.53200149536133" y2="145.48720745313872" style="visibility: inherit;" fill="rgb(0, 0, 0)" stroke="rgb(204, 204, 204)" stroke-width="1px"></line><line x1="51.53200149536133" y1="132.1809982321005" x2="46.53200149536133" y2="132.1809982321005" style="visibility: inherit;" fill="rgb(0, 0, 0)" stroke="rgb(204, 204, 204)" stroke-width="1px"></line><line x1="51.53200149536133" y1="122.74009254468906" x2="46.53200149536133" y2="122.74009254468906" style="visibility: inherit;" fill="rgb(0, 0, 0)" stroke="rgb(204, 204, 204)" stroke-width="1px"></line><line x1="51.53200149536133" y1="115.41715717802794" x2="46.53200149536133" y2="115.41715717802794" style="visibility: inherit;" fill="rgb(0, 0, 0)" stroke="rgb(204, 204, 204)" stroke-width="1px"></line><line x1="51.53200149536133" y1="109.43388332365083" x2="46.53200149536133" y2="109.43388332365083" style="visibility: inherit;" fill="rgb(0, 0, 0)" stroke="rgb(204, 204, 204)" stroke-width="1px"></line><line x1="51.53200149536133" y1="104.37509736074229" x2="46.53200149536133" y2="104.37509736074229" style="visibility: inherit;" fill="rgb(0, 0, 0)" stroke="rgb(204, 204, 204)" stroke-width="1px"></line><line x1="51.53200149536133" y1="99.99297763623937" x2="46.53200149536133" y2="99.99297763623937" style="visibility: inherit;" fill="rgb(0, 0, 0)" stroke="rgb(204, 204, 204)" stroke-width="1px"></line><line x1="51.53200149536133" y1="96.1276741026126" x2="46.53200149536133" y2="96.1276741026126" style="visibility: inherit;" fill="rgb(0, 0, 0)" stroke="rgb(204, 204, 204)" stroke-width="1px"></line><line x1="51.53200149536133" y1="92.67004226957823" x2="46.53200149536133" y2="92.67004226957823" style="visibility: inherit;" fill="rgb(0, 0, 0)" stroke="rgb(204, 204, 204)" stroke-width="1px"></line><line x1="51.53200149536133" y1="69.92292736112857" x2="46.53200149536133" y2="69.92292736112857" style="visibility: inherit;" fill="rgb(0, 0, 0)" stroke="rgb(204, 204, 204)" stroke-width="1px"></line><line x1="51.53200149536133" y1="56.61671814009034" x2="46.53200149536133" y2="56.61671814009034" style="visibility: inherit;" fill="rgb(0, 0, 0)" stroke="rgb(204, 204, 204)" stroke-width="1px"></line><line x1="51.53200149536133" y1="47.17581245267889" x2="46.53200149536133" y2="47.17581245267889" style="visibility: inherit;" fill="rgb(0, 0, 0)" stroke="rgb(204, 204, 204)" stroke-width="1px"></line><line x1="51.53200149536133" y1="39.85287708601776" x2="46.53200149536133" y2="39.85287708601776" style="visibility: inherit;" fill="rgb(0, 0, 0)" stroke="rgb(204, 204, 204)" stroke-width="1px"></line><line x1="51.53200149536133" y1="33.86960323164066" x2="46.53200149536133" y2="33.86960323164066" style="visibility: inherit;" fill="rgb(0, 0, 0)" stroke="rgb(204, 204, 204)" stroke-width="1px"></line><line x1="51.53200149536133" y1="28.810817268732112" x2="46.53200149536133" y2="28.810817268732112" style="visibility: inherit;" fill="rgb(0, 0, 0)" stroke="rgb(204, 204, 204)" stroke-width="1px"></line><line x1="51.53200149536133" y1="24.428697544229184" x2="46.53200149536133" y2="24.428697544229184" style="visibility: inherit;" fill="rgb(0, 0, 0)" stroke="rgb(204, 204, 204)" stroke-width="1px"></line><line x1="51.53200149536133" y1="20.563394010602412" x2="46.53200149536133" y2="20.563394010602412" style="visibility: inherit;" fill="rgb(0, 0, 0)" stroke="rgb(204, 204, 204)" stroke-width="1px"></line><line x1="51.53200149536133" y1="17.10576217756806" x2="46.53200149536133" y2="17.10576217756806" style="visibility: inherit;" fill="rgb(0, 0, 0)" stroke="rgb(204, 204, 204)" stroke-width="1px"></line></g><g transform="translate(41.53200149536133, 0)"><text style="text-anchor: end; visibility: hidden; font-family: Roboto, sans-serif; font-size: 12px; font-weight: 200;" x="0" y="175.55725772824954" dx="0em" dy="0.3em" fill="rgb(50, 49, 63)" stroke="none" stroke-width="1px">8e-3</text><text style="text-anchor: end; visibility: hidden; font-family: Roboto, sans-serif; font-size: 12px; font-weight: 200;" x="0" y="171.69195419462278" dx="0em" dy="0.3em" fill="rgb(50, 49, 63)" stroke="none" stroke-width="1px">9e-3</text><text style="text-anchor: end; visibility: inherit; font-family: Roboto, sans-serif; font-size: 12px; font-weight: 200;" x="0" y="168.2343223615884" dx="0em" dy="0.3em" fill="rgb(50, 49, 63)" stroke="none" stroke-width="1px">0.01</text><text style="text-anchor: end; visibility: hidden; font-family: Roboto, sans-serif; font-size: 12px; font-weight: 200;" x="0" y="145.48720745313872" dx="0em" dy="0.3em" fill="rgb(50, 49, 63)" stroke="none" stroke-width="1px">0.02</text><text style="text-anchor: end; visibility: hidden; font-family: Roboto, sans-serif; font-size: 12px; font-weight: 200;" x="0" y="132.1809982321005" dx="0em" dy="0.3em" fill="rgb(50, 49, 63)" stroke="none" stroke-width="1px">0.03</text><text style="text-anchor: end; visibility: hidden; font-family: Roboto, sans-serif; font-size: 12px; font-weight: 200;" x="0" y="122.74009254468906" dx="0em" dy="0.3em" fill="rgb(50, 49, 63)" stroke="none" stroke-width="1px">0.04</text><text style="text-anchor: end; visibility: hidden; font-family: Roboto, sans-serif; font-size: 12px; font-weight: 200;" x="0" y="115.41715717802794" dx="0em" dy="0.3em" fill="rgb(50, 49, 63)" stroke="none" stroke-width="1px">0.05</text><text style="text-anchor: end; visibility: inherit; font-family: Roboto, sans-serif; font-size: 12px; font-weight: 200;" x="0" y="109.43388332365083" dx="0em" dy="0.3em" fill="rgb(50, 49, 63)" stroke="none" stroke-width="1px">0.06</text><text style="text-anchor: end; visibility: hidden; font-family: Roboto, sans-serif; font-size: 12px; font-weight: 200;" x="0" y="104.37509736074229" dx="0em" dy="0.3em" fill="rgb(50, 49, 63)" stroke="none" stroke-width="1px">0.07</text><text style="text-anchor: end; visibility: hidden; font-family: Roboto, sans-serif; font-size: 12px; font-weight: 200;" x="0" y="99.99297763623937" dx="0em" dy="0.3em" fill="rgb(50, 49, 63)" stroke="none" stroke-width="1px">0.08</text><text style="text-anchor: end; visibility: hidden; font-family: Roboto, sans-serif; font-size: 12px; font-weight: 200;" x="0" y="96.1276741026126" dx="0em" dy="0.3em" fill="rgb(50, 49, 63)" stroke="none" stroke-width="1px">0.09</text><text style="text-anchor: end; visibility: hidden; font-family: Roboto, sans-serif; font-size: 12px; font-weight: 200;" x="0" y="92.67004226957823" dx="0em" dy="0.3em" fill="rgb(50, 49, 63)" stroke="none" stroke-width="1px">0.1</text><text style="text-anchor: end; visibility: inherit; font-family: Roboto, sans-serif; font-size: 12px; font-weight: 200;" x="0" y="69.92292736112857" dx="0em" dy="0.3em" fill="rgb(50, 49, 63)" stroke="none" stroke-width="1px">0.2</text><text style="text-anchor: end; visibility: hidden; font-family: Roboto, sans-serif; font-size: 12px; font-weight: 200;" x="0" y="56.61671814009034" dx="0em" dy="0.3em" fill="rgb(50, 49, 63)" stroke="none" stroke-width="1px">0.3</text><text style="text-anchor: end; visibility: hidden; font-family: Roboto, sans-serif; font-size: 12px; font-weight: 200;" x="0" y="47.17581245267889" dx="0em" dy="0.3em" fill="rgb(50, 49, 63)" stroke="none" stroke-width="1px">0.4</text><text style="text-anchor: end; visibility: hidden; font-family: Roboto, sans-serif; font-size: 12px; font-weight: 200;" x="0" y="39.85287708601776" dx="0em" dy="0.3em" fill="rgb(50, 49, 63)" stroke="none" stroke-width="1px">0.5</text><text style="text-anchor: end; visibility: hidden; font-family: Roboto, sans-serif; font-size: 12px; font-weight: 200;" x="0" y="33.86960323164066" dx="0em" dy="0.3em" fill="rgb(50, 49, 63)" stroke="none" stroke-width="1px">0.6</text><text style="text-anchor: end; visibility: inherit; font-family: Roboto, sans-serif; font-size: 12px; font-weight: 200;" x="0" y="28.810817268732112" dx="0em" dy="0.3em" fill="rgb(50, 49, 63)" stroke="none" stroke-width="1px">0.7</text><text style="text-anchor: end; visibility: hidden; font-family: Roboto, sans-serif; font-size: 12px; font-weight: 200;" x="0" y="24.428697544229184" dx="0em" dy="0.3em" fill="rgb(50, 49, 63)" stroke="none" stroke-width="1px">0.8</text><text style="text-anchor: end; visibility: hidden; font-family: Roboto, sans-serif; font-size: 12px; font-weight: 200;" x="0" y="20.563394010602412" dx="0em" dy="0.3em" fill="rgb(50, 49, 63)" stroke="none" stroke-width="1px">0.9</text><text style="text-anchor: end; visibility: hidden; font-family: Roboto, sans-serif; font-size: 12px; font-weight: 200;" x="0" y="17.10576217756806" dx="0em" dy="0.3em" fill="rgb(50, 49, 63)" stroke="none" stroke-width="1px">1</text></g><line x1="51.53200149536133" y1="0" x2="51.53200149536133" y2="177.55199909210205" fill="rgb(0, 0, 0)" stroke="rgb(204, 204, 204)" stroke-width="1px"></line></g></g><g transform="translate(51, 0)" clip-path="url(#clip_0)"><clipPath id="clip_0"><rect width="278" height="177"></rect></clipPath><g><g><g><line x1="0" y1="0" x2="0" y2="177.55199909210205" fill="rgb(0, 0, 0)" stroke="rgb(60, 60, 60)" stroke-width="1px" opacity="0.25"></line><line x1="30.94088872273763" y1="0" x2="30.94088872273763" y2="177.55199909210205" fill="rgb(0, 0, 0)" stroke="rgb(60, 60, 60)" stroke-width="1px" opacity="0.25"></line><line x1="61.88177744547526" y1="0" x2="61.88177744547526" y2="177.55199909210205" fill="rgb(0, 0, 0)" stroke="rgb(60, 60, 60)" stroke-width="1px" opacity="0.25"></line><line x1="92.82266616821289" y1="0" x2="92.82266616821289" y2="177.55199909210205" fill="rgb(0, 0, 0)" stroke="rgb(60, 60, 60)" stroke-width="1px" opacity="0.25"></line><line x1="123.76355489095052" y1="0" x2="123.76355489095052" y2="177.55199909210205" fill="rgb(0, 0, 0)" stroke="rgb(60, 60, 60)" stroke-width="1px" opacity="0.25"></line><line x1="154.70444361368817" y1="0" x2="154.70444361368817" y2="177.55199909210205" fill="rgb(0, 0, 0)" stroke="rgb(60, 60, 60)" stroke-width="1px" opacity="0.25"></line><line x1="185.64533233642578" y1="0" x2="185.64533233642578" y2="177.55199909210205" fill="rgb(0, 0, 0)" stroke="rgb(60, 60, 60)" stroke-width="1px" opacity="0.25"></line><line x1="216.58622105916342" y1="0" x2="216.58622105916342" y2="177.55199909210205" fill="rgb(0, 0, 0)" stroke="rgb(60, 60, 60)" stroke-width="1px" opacity="0.25"></line><line x1="247.52710978190103" y1="0" x2="247.52710978190103" y2="177.55199909210205" fill="rgb(0, 0, 0)" stroke="rgb(60, 60, 60)" stroke-width="1px" opacity="0.25"></line><line x1="278.4679985046387" y1="0" x2="278.4679985046387" y2="177.55199909210205" fill="rgb(0, 0, 0)" stroke="rgb(60, 60, 60)" stroke-width="1px" opacity="0.25"></line></g><g><line x1="0" y1="175.55725772824954" x2="278.4679985046387" y2="175.55725772824954" fill="rgb(0, 0, 0)" stroke="rgb(60, 60, 60)" stroke-width="1px" opacity="0.25"></line><line x1="0" y1="171.69195419462278" x2="278.4679985046387" y2="171.69195419462278" fill="rgb(0, 0, 0)" stroke="rgb(60, 60, 60)" stroke-width="1px" opacity="0.25"></line><line x1="0" y1="168.2343223615884" x2="278.4679985046387" y2="168.2343223615884" fill="rgb(0, 0, 0)" stroke="rgb(60, 60, 60)" stroke-width="1px" opacity="0.25"></line><line x1="0" y1="145.48720745313872" x2="278.4679985046387" y2="145.48720745313872" fill="rgb(0, 0, 0)" stroke="rgb(60, 60, 60)" stroke-width="1px" opacity="0.25"></line><line x1="0" y1="132.1809982321005" x2="278.4679985046387" y2="132.1809982321005" fill="rgb(0, 0, 0)" stroke="rgb(60, 60, 60)" stroke-width="1px" opacity="0.25"></line><line x1="0" y1="122.74009254468906" x2="278.4679985046387" y2="122.74009254468906" fill="rgb(0, 0, 0)" stroke="rgb(60, 60, 60)" stroke-width="1px" opacity="0.25"></line><line x1="0" y1="115.41715717802794" x2="278.4679985046387" y2="115.41715717802794" fill="rgb(0, 0, 0)" stroke="rgb(60, 60, 60)" stroke-width="1px" opacity="0.25"></line><line x1="0" y1="109.43388332365083" x2="278.4679985046387" y2="109.43388332365083" fill="rgb(0, 0, 0)" stroke="rgb(60, 60, 60)" stroke-width="1px" opacity="0.25"></line><line x1="0" y1="104.37509736074229" x2="278.4679985046387" y2="104.37509736074229" fill="rgb(0, 0, 0)" stroke="rgb(60, 60, 60)" stroke-width="1px" opacity="0.25"></line><line x1="0" y1="99.99297763623937" x2="278.4679985046387" y2="99.99297763623937" fill="rgb(0, 0, 0)" stroke="rgb(60, 60, 60)" stroke-width="1px" opacity="0.25"></line><line x1="0" y1="96.1276741026126" x2="278.4679985046387" y2="96.1276741026126" fill="rgb(0, 0, 0)" stroke="rgb(60, 60, 60)" stroke-width="1px" opacity="0.25"></line><line x1="0" y1="92.67004226957823" x2="278.4679985046387" y2="92.67004226957823" fill="rgb(0, 0, 0)" stroke="rgb(60, 60, 60)" stroke-width="1px" opacity="0.25"></line><line x1="0" y1="69.92292736112857" x2="278.4679985046387" y2="69.92292736112857" fill="rgb(0, 0, 0)" stroke="rgb(60, 60, 60)" stroke-width="1px" opacity="0.25"></line><line x1="0" y1="56.61671814009034" x2="278.4679985046387" y2="56.61671814009034" fill="rgb(0, 0, 0)" stroke="rgb(60, 60, 60)" stroke-width="1px" opacity="0.25"></line><line x1="0" y1="47.17581245267889" x2="278.4679985046387" y2="47.17581245267889" fill="rgb(0, 0, 0)" stroke="rgb(60, 60, 60)" stroke-width="1px" opacity="0.25"></line><line x1="0" y1="39.85287708601776" x2="278.4679985046387" y2="39.85287708601776" fill="rgb(0, 0, 0)" stroke="rgb(60, 60, 60)" stroke-width="1px" opacity="0.25"></line><line x1="0" y1="33.86960323164066" x2="278.4679985046387" y2="33.86960323164066" fill="rgb(0, 0, 0)" stroke="rgb(60, 60, 60)" stroke-width="1px" opacity="0.25"></line><line x1="0" y1="28.810817268732112" x2="278.4679985046387" y2="28.810817268732112" fill="rgb(0, 0, 0)" stroke="rgb(60, 60, 60)" stroke-width="1px" opacity="0.25"></line><line x1="0" y1="24.428697544229184" x2="278.4679985046387" y2="24.428697544229184" fill="rgb(0, 0, 0)" stroke="rgb(60, 60, 60)" stroke-width="1px" opacity="0.25"></line><line x1="0" y1="20.563394010602412" x2="278.4679985046387" y2="20.563394010602412" fill="rgb(0, 0, 0)" stroke="rgb(60, 60, 60)" stroke-width="1px" opacity="0.25"></line><line x1="0" y1="17.10576217756806" x2="278.4679985046387" y2="17.10576217756806" fill="rgb(0, 0, 0)" stroke="rgb(60, 60, 60)" stroke-width="1px" opacity="0.25"></line></g></g></g><g><g><line x1="30.94088872273763" y1="0" x2="30.94088872273763" y2="177.55199909210205" fill="rgb(0, 0, 0)" stroke="rgb(153, 153, 153)" stroke-width="1.5px"></line></g></g><g><g><g><g><g><path style="fill: none;" stroke="rgb(255, 112, 67)" stroke-width="2px" d="M34.03497759501139,3.6815492561004537L37.129066467285156,25.36457129887173L40.223155339558915,34.47498042871913L43.31724421183268,36.234892986535264L46.411333084106445,40.02841865314651L49.50542195638021,13.879516567350215L52.59951082865397,24.083243465433235L55.693599700927734,36.26149669046339L58.7876885732015,42.882231579094025L61.88177744547526,51.98798540478734L64.97586631774902,57.64069667788595L68.06995519002278,63.787780875714006L71.16404406229654,68.64001817460245L74.25813293457031,76.43195310554934L77.35222180684408,80.30199805601652L80.44631067911783,82.76607355052505L83.5403995513916,94.6352117024345L86.63448842366536,95.20253187312669L89.72857729593913,92.04129178499208L92.82266616821289,84.2615727204161L95.91675504048665,93.83079027312657L99.01084391276042,97.58858949096879L102.10493278503417,87.5456234719173L105.19902165730794,99.99735793119743L108.29311052958171,108.14060139338854L111.38719940185547,86.44779368007231L114.48128827412923,92.6361423573375L117.575377146403,89.33574057415457L120.66946601867676,100.46554922497877L123.76355489095052,111.30158448320154L126.85764376322427,103.26582427574816L129.95173263549805,104.36544283539268L133.04582150777182,102.69831172640471L126.85764376322427,99.39065223008342L129.95173263549805,108.89924736805013L133.04582150777182,116.61687928765419L136.13991038004556,130.37871590061226L139.23399925231934,132.95336954482505L142.32808812459308,134.3090546706381L145.42217699686688,132.13473984910922L148.51626586914062,138.333326158615L151.61035474141437,123.17462406905126L154.70444361368817,134.76752660365798L157.7985324859619,125.7535659022946L160.89262135823566,114.95481069159791L163.98671023050946,127.45435798572657L167.0807991027832,123.26783423309489L170.17488797505698,132.02910806895886L173.26897684733072,130.639035697156L176.3630657196045,141.78595152545802L179.45715459187826,141.52083326040625L182.551243464152,119.69494956335542L185.64533233642578,126.80124078993029L188.73942120869955,114.844174034941L191.8335100809733,127.17280229605919L194.92759895324707,142.40322180692678L198.02168782552084,143.64725896401697L201.1157766977946,150.6609890352835L204.20986557006833,138.2766290132104L207.30395444234213,134.3390213769577L210.39804331461588,138.95698921905233L213.49213218688968,150.15075489492838L216.58622105916342,143.47978850266463L219.68030993143717,123.8293707124506L222.77439880371094,137.38812332320026L225.8684876759847,152.18742779323034L228.96257654825845,145.75368330185404L219.68030993143717,139.78496426271337L222.77439880371094,125.19760763145895L225.8684876759847,137.26546906533142L228.96257654825845,151.89378276363527L232.05666542053223,164.24147916025552L235.150754292806,158.05882996537568L238.24484316507974,152.73009299591618L241.33893203735352,159.82078766528252L244.4330209096273,168.13423251649564" fill="none"></path></g><g><path style="fill: none;" stroke="rgb(0, 119, 187)" stroke-width="2px" d="M30.94088872273763,0.7154189366064205L61.88177744547526,23.609886786776002L92.82266616821289,26.399095984772075L123.76355489095052,29.205928921215868L123.76355489095052,30.655907088798912L154.70444361368817,37.24907813626523L185.64533233642578,38.23366109453837L216.58622105916342,37.01514752494345L247.52710978190103,38.36117716919948" fill="none"></path></g></g></g></g><g opacity="0.2"><g><g><g><path style="fill: none;" stroke="rgb(255, 112, 67)" stroke-width="2px" d="M34.03497759501139,3.6815492561004537L37.129066467285156,52.43491388152976L40.223155339558915,46.518100027133514L43.31724421183268,38.43305335454454L46.411333084106445,45.74984603488161L49.50542195638021,-4.668514020004377L52.59951082865397,48.273508949476536L55.693599700927734,71.19654147049701L58.7876885732015,56.00881349964486L61.88177744547526,73.12422632446962L64.97586631774902,68.43288674389073L68.06995519002278,75.86465647375542L71.16404406229654,77.58154323853799L74.25813293457031,93.27594086838025L77.35222180684408,87.1200363280756L80.44631067911783,86.84611947729225L83.5403995513916,129.40903215020242L86.63448842366536,96.0721868017163L89.72857729593913,87.8064953486493L92.82266616821289,75.23592942344666L95.91675504048665,117.09499111667344L99.01084391276042,104.18040227553361L102.10493278503417,76.61049257789585L105.19902165730794,138.66238900483557L108.29311052958171,126.15629785490117L111.38719940185547,68.54526294315868L114.48128827412923,104.87446830196257L117.575377146403,84.93469696600485L120.66946601867676,131.00013922706802L123.76355489095052,140.31071143391227L126.85764376322427,94.01125207632148L129.95173263549805,106.08720238088046L133.04582150777182,100.34639902554952L126.85764376322427,94.98099730434306L129.95173263549805,131.91852400158038L133.04582150777182,133.25445579111081L136.13991038004556,180.28605178346683L139.23399925231934,137.23891422410716L142.32808812459308,136.45374840429415L145.42217699686688,129.12162314120286L148.51626586914062,150.59861700128576L151.61035474141437,108.68907682053421L154.70444361368817,167.89171761721866L157.7985324859619,115.65631995540704L160.89262135823566,103.43342519410317L163.98671023050946,166.46249631689992L167.0807991027832,117.84574864586243L170.17488797505698,152.19026710177727L173.26897684733072,128.6584573469111L176.3630657196045,172.41206073252263L179.45715459187826,141.12712898320007L182.551243464152,101.73282427202672L185.64533233642578,141.58393909105848L188.73942120869955,102.46922649259558L191.8335100809733,164.97483108502078L194.92759895324707,213.63058481189057L198.02168782552084,145.6064719550149L201.1157766977946,165.17465770616238L204.20986557006833,125.59969388189091L207.30395444234213,129.19779674981004L210.39804331461588,147.39177837836328L213.49213218688968,181.02897466106364L216.58622105916342,135.48327609891115L219.68030993143717,106.88654010109852L222.77439880371094,185.24720884033448L225.8684876759847,215.49782598208625L228.96257654825845,137.98637713017067L219.68030993143717,132.47659016939514L222.77439880371094,111.0642685440947L225.8684876759847,173.3199776007413L228.96257654825845,212.5499575569566L232.05666542053223,202.17558174957855L235.150754292806,150.53772322037727L238.24484316507974,146.07501536345072L241.33893203735352,174.55794636713532L244.4330209096273,186.72303630571585" fill="none"></path></g><g><path style="fill: none;" stroke="rgb(0, 119, 187)" stroke-width="2px" d="M30.94088872273763,0.7154189366064205L61.88177744547526,54.12600776577782L92.82266616821289,29.320039062821806L123.76355489095052,32.8467285878156L123.76355489095052,32.65087003070907L154.70444361368817,49.32241625170897L185.64533233642578,39.69502425948197L216.58622105916342,35.31588453291589L247.52710978190103,40.452847523506954" fill="none"></path></g></g></g></g></g></g><g transform="translate(51, 177)" clip-path="url(#clip_1)"><clipPath id="clip_1"><rect width="278" height="22"></rect></clipPath><g><g><line x1="0" y1="0" x2="0" y2="5" style="visibility: inherit;" fill="rgb(0, 0, 0)" stroke="rgb(204, 204, 204)" stroke-width="1px"></line><line x1="30.94088872273763" y1="0" x2="30.94088872273763" y2="5" style="visibility: inherit;" fill="rgb(0, 0, 0)" stroke="rgb(204, 204, 204)" stroke-width="1px"></line><line x1="61.88177744547526" y1="0" x2="61.88177744547526" y2="5" style="visibility: inherit;" fill="rgb(0, 0, 0)" stroke="rgb(204, 204, 204)" stroke-width="1px"></line><line x1="92.82266616821289" y1="0" x2="92.82266616821289" y2="5" style="visibility: inherit;" fill="rgb(0, 0, 0)" stroke="rgb(204, 204, 204)" stroke-width="1px"></line><line x1="123.76355489095052" y1="0" x2="123.76355489095052" y2="5" style="visibility: inherit;" fill="rgb(0, 0, 0)" stroke="rgb(204, 204, 204)" stroke-width="1px"></line><line x1="154.70444361368817" y1="0" x2="154.70444361368817" y2="5" style="visibility: inherit;" fill="rgb(0, 0, 0)" stroke="rgb(204, 204, 204)" stroke-width="1px"></line><line x1="185.64533233642578" y1="0" x2="185.64533233642578" y2="5" style="visibility: inherit;" fill="rgb(0, 0, 0)" stroke="rgb(204, 204, 204)" stroke-width="1px"></line><line x1="216.58622105916342" y1="0" x2="216.58622105916342" y2="5" style="visibility: inherit;" fill="rgb(0, 0, 0)" stroke="rgb(204, 204, 204)" stroke-width="1px"></line><line x1="247.52710978190103" y1="0" x2="247.52710978190103" y2="5" style="visibility: inherit;" fill="rgb(0, 0, 0)" stroke="rgb(204, 204, 204)" stroke-width="1px"></line><line x1="278.4679985046387" y1="0" x2="278.4679985046387" y2="5" style="visibility: inherit;" fill="rgb(0, 0, 0)" stroke="rgb(204, 204, 204)" stroke-width="1px"></line></g><g transform="translate(0, 8)"><text style="text-anchor: middle; visibility: hidden; font-family: Roboto, sans-serif; font-size: 12px; font-weight: 200;" x="0" y="0" dx="0em" dy="0.95em" fill="rgb(50, 49, 63)" stroke="none" stroke-width="1px">-1k</text><text style="text-anchor: middle; visibility: inherit; font-family: Roboto, sans-serif; font-size: 12px; font-weight: 200;" x="30.94088872273763" y="0" dx="0em" dy="0.95em" fill="rgb(50, 49, 63)" stroke="none" stroke-width="1px">0</text><text style="text-anchor: middle; visibility: inherit; font-family: Roboto, sans-serif; font-size: 12px; font-weight: 200;" x="61.88177744547526" y="0" dx="0em" dy="0.95em" fill="rgb(50, 49, 63)" stroke="none" stroke-width="1px">1k</text><text style="text-anchor: middle; visibility: inherit; font-family: Roboto, sans-serif; font-size: 12px; font-weight: 200;" x="92.82266616821289" y="0" dx="0em" dy="0.95em" fill="rgb(50, 49, 63)" stroke="none" stroke-width="1px">2k</text><text style="text-anchor: middle; visibility: inherit; font-family: Roboto, sans-serif; font-size: 12px; font-weight: 200;" x="123.76355489095052" y="0" dx="0em" dy="0.95em" fill="rgb(50, 49, 63)" stroke="none" stroke-width="1px">3k</text><text style="text-anchor: middle; visibility: inherit; font-family: Roboto, sans-serif; font-size: 12px; font-weight: 200;" x="154.70444361368817" y="0" dx="0em" dy="0.95em" fill="rgb(50, 49, 63)" stroke="none" stroke-width="1px">4k</text><text style="text-anchor: middle; visibility: inherit; font-family: Roboto, sans-serif; font-size: 12px; font-weight: 200;" x="185.64533233642578" y="0" dx="0em" dy="0.95em" fill="rgb(50, 49, 63)" stroke="none" stroke-width="1px">5k</text><text style="text-anchor: middle; visibility: inherit; font-family: Roboto, sans-serif; font-size: 12px; font-weight: 200;" x="216.58622105916342" y="0" dx="0em" dy="0.95em" fill="rgb(50, 49, 63)" stroke="none" stroke-width="1px">6k</text><text style="text-anchor: middle; visibility: inherit; font-family: Roboto, sans-serif; font-size: 12px; font-weight: 200;" x="247.52710978190103" y="0" dx="0em" dy="0.95em" fill="rgb(50, 49, 63)" stroke="none" stroke-width="1px">7k</text><text style="text-anchor: middle; visibility: hidden; font-family: Roboto, sans-serif; font-size: 12px; font-weight: 200;" x="278.4679985046387" y="0" dx="0em" dy="0.95em" fill="rgb(50, 49, 63)" stroke="none" stroke-width="1px">8k</text></g><line x1="0" y1="0" x2="278.4679985046387" y2="0" fill="rgb(0, 0, 0)" stroke="rgb(204, 204, 204)" stroke-width="1px"></line></g></g></g></g></svg>