<svg viewBox="0 0 330 200" xmlns="http://www.w3.org/2000/svg"><g><g><g><g><g><line x1="61.91500186920166" y1="177.55199909210205" x2="56.91500186920166" y2="177.55199909210205" style="visibility: inherit;" fill="rgb(0, 0, 0)" stroke="rgb(204, 204, 204)" stroke-width="1px"></line><line x1="61.91500186920166" y1="161.4109082655473" x2="56.91500186920166" y2="161.4109082655473" style="visibility: inherit;" fill="rgb(0, 0, 0)" stroke="rgb(204, 204, 204)" stroke-width="1px"></line><line x1="61.91500186920166" y1="145.2698174389926" x2="56.91500186920166" y2="145.2698174389926" style="visibility: inherit;" fill="rgb(0, 0, 0)" stroke="rgb(204, 204, 204)" stroke-width="1px"></line><line x1="61.91500186920166" y1="129.12872661243784" x2="56.91500186920166" y2="129.12872661243784" style="visibility: inherit;" fill="rgb(0, 0, 0)" stroke="rgb(204, 204, 204)" stroke-width="1px"></line><line x1="61.91500186920166" y1="112.98763578588313" x2="56.91500186920166" y2="112.98763578588313" style="visibility: inherit;" fill="rgb(0, 0, 0)" stroke="rgb(204, 204, 204)" stroke-width="1px"></line><line x1="61.91500186920166" y1="96.84654495932838" x2="56.91500186920166" y2="96.84654495932838" style="visibility: inherit;" fill="rgb(0, 0, 0)" stroke="rgb(204, 204, 204)" stroke-width="1px"></line><line x1="61.91500186920166" y1="80.70545413277365" x2="56.91500186920166" y2="80.70545413277365" style="visibility: inherit;" fill="rgb(0, 0, 0)" stroke="rgb(204, 204, 204)" stroke-width="1px"></line><line x1="61.91500186920166" y1="64.56436330621895" x2="56.91500186920166" y2="64.56436330621895" style="visibility: inherit;" fill="rgb(0, 0, 0)" stroke="rgb(204, 204, 204)" stroke-width="1px"></line><line x1="61.91500186920166" y1="48.42327247966419" x2="56.91500186920166" y2="48.42327247966419" style="visibility: inherit;" fill="rgb(0, 0, 0)" stroke="rgb(204, 204, 204)" stroke-width="1px"></line><line x1="61.91500186920166" y1="32.282181653109475" x2="56.91500186920166" y2="32.282181653109475" style="visibility: inherit;" fill="rgb(0, 0, 0)" stroke="rgb(204, 204, 204)" stroke-width="1px"></line><line x1="61.91500186920166" y1="16.141090826554738" x2="56.91500186920166" y2="16.141090826554738" style="visibility: inherit;" fill="rgb(0, 0, 0)" stroke="rgb(204, 204, 204)" stroke-width="1px"></line><line x1="61.91500186920166" y1="0" x2="56.91500186920166" y2="0" style="visibility: inherit;" fill="rgb(0, 0, 0)" stroke="rgb(204, 204, 204)" stroke-width="1px"></line></g><g transform="translate(51.91500186920166, 0)"><text style="text-anchor: end; visibility: hidden; font-family: Roboto, sans-serif; font-size: 12px; font-weight: 200;" x="0" y="177.55199909210205" dx="0em" dy="0.3em" fill="rgb(50, 49, 63)" stroke="none" stroke-width="1px">-5e-3</text><text style="text-anchor: end; visibility: inherit; font-family: Roboto, sans-serif; font-size: 12px; font-weight: 200;" x="0" y="161.4109082655473" dx="0em" dy="0.3em" fill="rgb(50, 49, 63)" stroke="none" stroke-width="1px">0</text><text style="text-anchor: end; visibility: hidden; font-family: Roboto, sans-serif; font-size: 12px; font-weight: 200;" x="0" y="145.2698174389926" dx="0em" dy="0.3em" fill="rgb(50, 49, 63)" stroke="none" stroke-width="1px">5e-3</text><text style="text-anchor: end; visibility: inherit; font-family: Roboto, sans-serif; font-size: 12px; font-weight: 200;" x="0" y="129.12872661243784" dx="0em" dy="0.3em" fill="rgb(50, 49, 63)" stroke="none" stroke-width="1px">0.01</text><text style="text-anchor: end; visibility: hidden; font-family: Roboto, sans-serif; font-size: 12px; font-weight: 200;" x="0" y="112.98763578588313" dx="0em" dy="0.3em" fill="rgb(50, 49, 63)" stroke="none" stroke-width="1px">0.015</text><text style="text-anchor: end; visibility: inherit; font-family: Roboto, sans-serif; font-size: 12px; font-weight: 200;" x="0" y="96.84654495932838" dx="0em" dy="0.3em" fill="rgb(50, 49, 63)" stroke="none" stroke-width="1px">0.02</text><text style="text-anchor: end; visibility: hidden; font-family: Roboto, sans-serif; font-size: 12px; font-weight: 200;" x="0" y="80.70545413277365" dx="0em" dy="0.3em" fill="rgb(50, 49, 63)" stroke="none" stroke-width="1px">0.025</text><text style="text-anchor: end; visibility: inherit; font-family: Roboto, sans-serif; font-size: 12px; font-weight: 200;" x="0" y="64.56436330621895" dx="0em" dy="0.3em" fill="rgb(50, 49, 63)" stroke="none" stroke-width="1px">0.03</text><text style="text-anchor: end; visibility: hidden; font-family: Roboto, sans-serif; font-size: 12px; font-weight: 200;" x="0" y="48.42327247966419" dx="0em" dy="0.3em" fill="rgb(50, 49, 63)" stroke="none" stroke-width="1px">0.035</text><text style="text-anchor: end; visibility: inherit; font-family: Roboto, sans-serif; font-size: 12px; font-weight: 200;" x="0" y="32.282181653109475" dx="0em" dy="0.3em" fill="rgb(50, 49, 63)" stroke="none" stroke-width="1px">0.04</text><text style="text-anchor: end; visibility: hidden; font-family: Roboto, sans-serif; font-size: 12px; font-weight: 200;" x="0" y="16.141090826554738" dx="0em" dy="0.3em" fill="rgb(50, 49, 63)" stroke="none" stroke-width="1px">0.045</text><text style="text-anchor: end; visibility: hidden; font-family: Roboto, sans-serif; font-size: 12px; font-weight: 200;" x="0" y="0" dx="0em" dy="0.3em" fill="rgb(50, 49, 63)" stroke="none" stroke-width="1px">0.05</text></g><line x1="61.91500186920166" y1="0" x2="61.91500186920166" y2="177.55199909210205" fill="rgb(0, 0, 0)" stroke="rgb(204, 204, 204)" stroke-width="1px"></line></g></g><g transform="translate(61, 0)" clip-path="url(#clip_0)"><clipPath id="clip_0"><rect width="268" height="177"></rect></clipPath><g><g><g><line x1="0" y1="0" x2="0" y2="177.55199909210205" fill="rgb(0, 0, 0)" stroke="rgb(60, 60, 60)" stroke-width="1px" opacity="0.25"></line><line x1="29.787222014533146" y1="0" x2="29.787222014533146" y2="177.55199909210205" fill="rgb(0, 0, 0)" stroke="rgb(60, 60, 60)" stroke-width="1px" opacity="0.25"></line><line x1="59.57444402906629" y1="0" x2="59.57444402906629" y2="177.55199909210205" fill="rgb(0, 0, 0)" stroke="rgb(60, 60, 60)" stroke-width="1px" opacity="0.25"></line><line x1="89.36166604359944" y1="0" x2="89.36166604359944" y2="177.55199909210205" fill="rgb(0, 0, 0)" stroke="rgb(60, 60, 60)" stroke-width="1px" opacity="0.25"></line><line x1="119.14888805813258" y1="0" x2="119.14888805813258" y2="177.55199909210205" fill="rgb(0, 0, 0)" stroke="rgb(60, 60, 60)" stroke-width="1px" opacity="0.25"></line><line x1="148.93611007266574" y1="0" x2="148.93611007266574" y2="177.55199909210205" fill="rgb(0, 0, 0)" stroke="rgb(60, 60, 60)" stroke-width="1px" opacity="0.25"></line><line x1="178.72333208719888" y1="0" x2="178.72333208719888" y2="177.55199909210205" fill="rgb(0, 0, 0)" stroke="rgb(60, 60, 60)" stroke-width="1px" opacity="0.25"></line><line x1="208.51055410173205" y1="0" x2="208.51055410173205" y2="177.55199909210205" fill="rgb(0, 0, 0)" stroke="rgb(60, 60, 60)" stroke-width="1px" opacity="0.25"></line><line x1="238.29777611626517" y1="0" x2="238.29777611626517" y2="177.55199909210205" fill="rgb(0, 0, 0)" stroke="rgb(60, 60, 60)" stroke-width="1px" opacity="0.25"></line><line x1="268.08499813079834" y1="0" x2="268.08499813079834" y2="177.55199909210205" fill="rgb(0, 0, 0)" stroke="rgb(60, 60, 60)" stroke-width="1px" opacity="0.25"></line></g><g><line x1="0" y1="177.55199909210205" x2="268.08499813079834" y2="177.55199909210205" fill="rgb(0, 0, 0)" stroke="rgb(60, 60, 60)" stroke-width="1px" opacity="0.25"></line><line x1="0" y1="161.4109082655473" x2="268.08499813079834" y2="161.4109082655473" fill="rgb(0, 0, 0)" stroke="rgb(60, 60, 60)" stroke-width="1px" opacity="0.25"></line><line x1="0" y1="145.2698174389926" x2="268.08499813079834" y2="145.2698174389926" fill="rgb(0, 0, 0)" stroke="rgb(60, 60, 60)" stroke-width="1px" opacity="0.25"></line><line x1="0" y1="129.12872661243784" x2="268.08499813079834" y2="129.12872661243784" fill="rgb(0, 0, 0)" stroke="rgb(60, 60, 60)" stroke-width="1px" opacity="0.25"></line><line x1="0" y1="112.98763578588313" x2="268.08499813079834" y2="112.98763578588313" fill="rgb(0, 0, 0)" stroke="rgb(60, 60, 60)" stroke-width="1px" opacity="0.25"></line><line x1="0" y1="96.84654495932838" x2="268.08499813079834" y2="96.84654495932838" fill="rgb(0, 0, 0)" stroke="rgb(60, 60, 60)" stroke-width="1px" opacity="0.25"></line><line x1="0" y1="80.70545413277365" x2="268.08499813079834" y2="80.70545413277365" fill="rgb(0, 0, 0)" stroke="rgb(60, 60, 60)" stroke-width="1px" opacity="0.25"></line><line x1="0" y1="64.56436330621895" x2="268.08499813079834" y2="64.56436330621895" fill="rgb(0, 0, 0)" stroke="rgb(60, 60, 60)" stroke-width="1px" opacity="0.25"></line><line x1="0" y1="48.42327247966419" x2="268.08499813079834" y2="48.42327247966419" fill="rgb(0, 0, 0)" stroke="rgb(60, 60, 60)" stroke-width="1px" opacity="0.25"></line><line x1="0" y1="32.282181653109475" x2="268.08499813079834" y2="32.282181653109475" fill="rgb(0, 0, 0)" stroke="rgb(60, 60, 60)" stroke-width="1px" opacity="0.25"></line><line x1="0" y1="16.141090826554738" x2="268.08499813079834" y2="16.141090826554738" fill="rgb(0, 0, 0)" stroke="rgb(60, 60, 60)" stroke-width="1px" opacity="0.25"></line><line x1="0" y1="0" x2="268.08499813079834" y2="0" fill="rgb(0, 0, 0)" stroke="rgb(60, 60, 60)" stroke-width="1px" opacity="0.25"></line></g></g></g><g><g><line x1="0" y1="161.4109082655473" x2="268.08499813079834" y2="161.4109082655473" fill="rgb(0, 0, 0)" stroke="rgb(153, 153, 153)" stroke-width="1.5px"></line></g></g><g><g><line x1="29.787222014533146" y1="0" x2="29.787222014533146" y2="177.55199909210205" fill="rgb(0, 0, 0)" stroke="rgb(153, 153, 153)" stroke-width="1.5px"></line></g></g><g><g><g><g><g><path style="fill: none;" stroke="rgb(255, 112, 67)" stroke-width="2px" d="M32.765944215986465,42.47722016375262L35.74466641743978,100.7616378175381L38.72338861889309,119.57707745947694L41.70211082034641,115.20919327696319L44.68083302179972,21.78615362740524L47.65955522325304,47.26307750973337L50.63827742470635,82.20663079876012L53.61699962615967,109.8068198676083L56.595721827612984,116.40464840280225L59.57444402906629,125.56957893440696L62.553166230519615,137.82412261041117L65.53188843197293,134.7889755697236L68.51061063342624,144.39239284713673L71.48933283487956,144.5280717762627L74.46805503633287,149.1998886574953L77.44677723778618,144.80966212334977L80.4254994392395,142.58430384791225L83.40422164069282,149.92610162461486L86.38294384214613,109.55100923549608L89.36166604359944,128.24473279114807L92.34038824505276,126.16835675363554L95.31911044650607,137.96971799018846L98.29783264795938,146.66630857060395L101.2765548494127,151.99284590078813L104.25527705086603,153.95975663810333L107.23399925231934,98.3857573738325L110.21272145377264,122.47917067501753L113.19144365522597,99.57479149050991L116.17016585667929,119.77862199076901L119.14888805813258,133.64182341816684L122.12761025958591,141.33597568002418L125.10633246103923,143.56672610557558L128.08505466249255,150.4792475574788L122.12761025958591,105.97259392155416L125.10633246103923,126.53246194387508L128.08505466249255,139.38100110236064L131.06377686394586,148.1183728235596L134.04249906539917,153.41916469623598L137.02122126685248,156.53364686814675L139.99994346830582,150.3443696451585L142.97866566975912,154.39393164274233L145.9573878712124,157.1201222510531L148.93611007266574,158.05963591702118L151.91483227411905,158.82766046426576L154.89355447557236,157.0365825578192L157.8722766770257,158.77813003016837L160.850998878479,159.81940779351783L163.82972107993234,159.7348792842985L166.80844328138565,159.94286509666438L169.78716548283893,160.31669529318472L172.76588768429227,149.04471559580728L175.74460988574558,153.8172531594159L178.72333208719888,156.80473980564477L181.70205428865222,158.56877814073152L184.68077649010553,158.86381091289687L187.65949869155884,159.77697678513817L190.63822089301215,160.4164015236047L193.61694309446546,159.52685497326115L196.59566529591876,156.8818072806538L199.5743874973721,158.65160715884778L202.5531096988254,148.75521528806476L205.53183190027875,152.85114819074482L208.51055410173205,155.4414489146482L211.48927630318536,152.13207495357125L214.46799850463867,155.7796246104738L217.44672070609198,158.0273085116049L220.4254429075453,159.36857566905L223.40416510899863,160.0737585376268L211.48927630318536,160.5961755189843L214.46799850463867,159.1972761680005L217.44672070609198,160.06593245225773L220.4254429075453,160.43673170991534L223.40416510899863,160.70646780575998L226.38288731045193,160.98410320991627L229.36160951190524,161.03102009344232L232.34033171335858,160.66069634562626L235.31905391481186,160.8332250123504L238.29777611626517,161.04882457737028" fill="none"></path></g><g><path style="fill: none;" stroke="rgb(0, 119, 187)" stroke-width="2px" d="M29.787222014533146,69.7789809301283L59.57444402906629,62.315310007073016L89.36166604359944,57.15270974428454L119.14888805813258,31.73502122485258L119.14888805813258,18.770412576842514L148.93611007266574,18.45089490084942L178.72333208719888,7.160343499642105L208.51055410173205,2.815835090618956L238.29777611626517,2.597250729825618" fill="none"></path></g></g></g></g><g opacity="0.2"><g><g><g><path style="fill: none;" stroke="rgb(255, 112, 67)" stroke-width="2px" d="M32.765944215986465,42.47722016375262L35.74466641743978,135.73228840980943L38.72338861889309,137.63989951573822L41.70211082034641,110.07256147832705L44.68083302179972,-100.18696693905763L47.65955522325304,82.50683493159075L50.63827742470635,132.176471098921L53.61699962615967,150.048160491804L56.595721827612984,126.13516392999867L59.57444402906629,139.17843265617603L62.553166230519615,156.0947903152106L65.53188843197293,130.2527721448555L68.51061063342624,158.76616193961442L71.48933283487956,144.73132436080502L74.46805503633287,156.20212243397356L77.44677723778618,138.2274186500244L80.4254994392395,139.24720813179778L83.40422164069282,160.93693420800855L86.38294384214613,48.99452139076822L89.36166604359944,156.28360944424716L92.34038824505276,123.05390657076336L95.31911044650607,155.67137151619943L98.29783264795938,159.71102274221667L101.2765548494127,159.98258879815177L104.25527705086603,156.91010876411636L107.23399925231934,15.024995475147191L110.21272145377264,158.61922897835387L113.19144365522597,65.21825787736576L116.17016585667929,150.0843491305743L119.14888805813258,154.43661789728287L122.12761025958591,152.87720152134557L125.10633246103923,146.91285130005804L128.08505466249255,160.84802891011734L122.12761025958591,39.212616655587595L125.10633246103923,157.3722630937597L128.08505466249255,158.6538095087758L131.06377686394586,161.22443027017658L134.04249906539917,161.37035245604343L137.02122126685248,161.20537010866585L139.99994346830582,141.06045383135995L142.97866566975912,160.46827463099822L145.9573878712124,161.20940816023935L148.93611007266574,159.46890641529518L151.91483227411905,159.97969728479995L154.89355447557236,154.34996569861477L157.8722766770257,161.39045123842064L160.850998878479,161.38132443844455L163.82972107993234,159.60808652047425L166.80844328138565,160.25484381520621L169.78716548283893,160.87744058795772L172.76588768429227,132.1367460498777L175.74460988574558,160.97605950479422L178.72333208719888,161.285969774975L181.70205428865222,161.214835643357L184.68077649010553,159.3063600711444L187.65949869155884,161.1467255934993L190.63822089301215,161.37553863130415L193.61694309446546,158.1925351477461L196.59566529591876,152.9142357417433L199.5743874973721,161.3063069761386L202.5531096988254,133.91062748189094L205.53183190027875,158.99504754476476L208.51055410173205,159.32690000050317L211.48927630318536,147.16801401195588L214.46799850463867,161.2509490958276L217.44672070609198,161.39883436330157L220.4254429075453,161.38047640521762L223.40416510899863,161.13153284049196L211.48927630318536,161.3798009910206L214.46799850463867,157.09892714152483L217.44672070609198,161.36891687864357L220.4254429075453,160.99293059640175L223.40416510899863,161.11107194952697L226.38288731045193,161.40055631615067L229.36160951190524,161.1013954187314L232.34033171335858,160.1052107239022L235.31905391481186,161.09201801243657L238.29777611626517,161.37222392490014" fill="none"></path></g><g><path style="fill: none;" stroke="rgb(0, 119, 187)" stroke-width="2px" d="M29.787222014533146,69.77898093012831L59.57444402906629,57.83710745323987L89.36166604359944,52.19661349200758L119.14888805813258,1.8438195260006145L119.14888805813258,1.8438195260006145L148.93611007266574,18.00888692858762L178.72333208719888,-8.985325652906795L208.51055410173205,-3.518499877017535L238.29777611626517,2.2748812554817084" fill="none"></path></g></g></g></g></g></g><g transform="translate(61, 177)" clip-path="url(#clip_1)"><clipPath id="clip_1"><rect width="268" height="22"></rect></clipPath><g><g><line x1="0" y1="0" x2="0" y2="5" style="visibility: inherit;" fill="rgb(0, 0, 0)" stroke="rgb(204, 204, 204)" stroke-width="1px"></line><line x1="29.787222014533146" y1="0" x2="29.787222014533146" y2="5" style="visibility: inherit;" fill="rgb(0, 0, 0)" stroke="rgb(204, 204, 204)" stroke-width="1px"></line><line x1="59.57444402906629" y1="0" x2="59.57444402906629" y2="5" style="visibility: inherit;" fill="rgb(0, 0, 0)" stroke="rgb(204, 204, 204)" stroke-width="1px"></line><line x1="89.36166604359944" y1="0" x2="89.36166604359944" y2="5" style="visibility: inherit;" fill="rgb(0, 0, 0)" stroke="rgb(204, 204, 204)" stroke-width="1px"></line><line x1="119.14888805813258" y1="0" x2="119.14888805813258" y2="5" style="visibility: inherit;" fill="rgb(0, 0, 0)" stroke="rgb(204, 204, 204)" stroke-width="1px"></line><line x1="148.93611007266574" y1="0" x2="148.93611007266574" y2="5" style="visibility: inherit;" fill="rgb(0, 0, 0)" stroke="rgb(204, 204, 204)" stroke-width="1px"></line><line x1="178.72333208719888" y1="0" x2="178.72333208719888" y2="5" style="visibility: inherit;" fill="rgb(0, 0, 0)" stroke="rgb(204, 204, 204)" stroke-width="1px"></line><line x1="208.51055410173205" y1="0" x2="208.51055410173205" y2="5" style="visibility: inherit;" fill="rgb(0, 0, 0)" stroke="rgb(204, 204, 204)" stroke-width="1px"></line><line x1="238.29777611626517" y1="0" x2="238.29777611626517" y2="5" style="visibility: inherit;" fill="rgb(0, 0, 0)" stroke="rgb(204, 204, 204)" stroke-width="1px"></line><line x1="268.08499813079834" y1="0" x2="268.08499813079834" y2="5" style="visibility: inherit;" fill="rgb(0, 0, 0)" stroke="rgb(204, 204, 204)" stroke-width="1px"></line></g><g transform="translate(0, 8)"><text style="text-anchor: middle; visibility: hidden; font-family: Roboto, sans-serif; font-size: 12px; font-weight: 200;" x="0" y="0" dx="0em" dy="0.95em" fill="rgb(50, 49, 63)" stroke="none" stroke-width="1px">-1k</text><text style="text-anchor: middle; visibility: inherit; font-family: Roboto, sans-serif; font-size: 12px; font-weight: 200;" x="29.787222014533146" y="0" dx="0em" dy="0.95em" fill="rgb(50, 49, 63)" stroke="none" stroke-width="1px">0</text><text style="text-anchor: middle; visibility: inherit; font-family: Roboto, sans-serif; font-size: 12px; font-weight: 200;" x="59.57444402906629" y="0" dx="0em" dy="0.95em" fill="rgb(50, 49, 63)" stroke="none" stroke-width="1px">1k</text><text style="text-anchor: middle; visibility: inherit; font-family: Roboto, sans-serif; font-size: 12px; font-weight: 200;" x="89.36166604359944" y="0" dx="0em" dy="0.95em" fill="rgb(50, 49, 63)" stroke="none" stroke-width="1px">2k</text><text style="text-anchor: middle; visibility: inherit; font-family: Roboto, sans-serif; font-size: 12px; font-weight: 200;" x="119.14888805813258" y="0" dx="0em" dy="0.95em" fill="rgb(50, 49, 63)" stroke="none" stroke-width="1px">3k</text><text style="text-anchor: middle; visibility: inherit; font-family: Roboto, sans-serif; font-size: 12px; font-weight: 200;" x="148.93611007266574" y="0" dx="0em" dy="0.95em" fill="rgb(50, 49, 63)" stroke="none" stroke-width="1px">4k</text><text style="text-anchor: middle; visibility: inherit; font-family: Roboto, sans-serif; font-size: 12px; font-weight: 200;" x="178.72333208719888" y="0" dx="0em" dy="0.95em" fill="rgb(50, 49, 63)" stroke="none" stroke-width="1px">5k</text><text style="text-anchor: middle; visibility: inherit; font-family: Roboto, sans-serif; font-size: 12px; font-weight: 200;" x="208.51055410173205" y="0" dx="0em" dy="0.95em" fill="rgb(50, 49, 63)" stroke="none" stroke-width="1px">6k</text><text style="text-anchor: middle; visibility: inherit; font-family: Roboto, sans-serif; font-size: 12px; font-weight: 200;" x="238.29777611626517" y="0" dx="0em" dy="0.95em" fill="rgb(50, 49, 63)" stroke="none" stroke-width="1px">7k</text><text style="text-anchor: middle; visibility: hidden; font-family: Roboto, sans-serif; font-size: 12px; font-weight: 200;" x="268.08499813079834" y="0" dx="0em" dy="0.95em" fill="rgb(50, 49, 63)" stroke="none" stroke-width="1px">8k</text></g><line x1="0" y1="0" x2="268.08499813079834" y2="0" fill="rgb(0, 0, 0)" stroke="rgb(204, 204, 204)" stroke-width="1px"></line></g></g></g></g></svg>