<svg viewBox="0 0 330 200" xmlns="http://www.w3.org/2000/svg"><g><g><g><g><g><line x1="61.91500186920166" y1="177.55199909210205" x2="56.91500186920166" y2="177.55199909210205" style="visibility: inherit;" fill="rgb(0, 0, 0)" stroke="rgb(204, 204, 204)" stroke-width="1px"></line><line x1="61.91500186920166" y1="155.3579992055893" x2="56.91500186920166" y2="155.3579992055893" style="visibility: inherit;" fill="rgb(0, 0, 0)" stroke="rgb(204, 204, 204)" stroke-width="1px"></line><line x1="61.91500186920166" y1="133.16399931907654" x2="56.91500186920166" y2="133.16399931907654" style="visibility: inherit;" fill="rgb(0, 0, 0)" stroke="rgb(204, 204, 204)" stroke-width="1px"></line><line x1="61.91500186920166" y1="110.96999943256377" x2="56.91500186920166" y2="110.96999943256377" style="visibility: inherit;" fill="rgb(0, 0, 0)" stroke="rgb(204, 204, 204)" stroke-width="1px"></line><line x1="61.91500186920166" y1="88.77599954605101" x2="56.91500186920166" y2="88.77599954605101" style="visibility: inherit;" fill="rgb(0, 0, 0)" stroke="rgb(204, 204, 204)" stroke-width="1px"></line><line x1="61.91500186920166" y1="66.58199965953827" x2="56.91500186920166" y2="66.58199965953827" style="visibility: inherit;" fill="rgb(0, 0, 0)" stroke="rgb(204, 204, 204)" stroke-width="1px"></line><line x1="61.91500186920166" y1="44.38799977302551" x2="56.91500186920166" y2="44.38799977302551" style="visibility: inherit;" fill="rgb(0, 0, 0)" stroke="rgb(204, 204, 204)" stroke-width="1px"></line><line x1="61.91500186920166" y1="22.193999886512756" x2="56.91500186920166" y2="22.193999886512756" style="visibility: inherit;" fill="rgb(0, 0, 0)" stroke="rgb(204, 204, 204)" stroke-width="1px"></line><line x1="61.91500186920166" y1="0" x2="56.91500186920166" y2="0" style="visibility: inherit;" fill="rgb(0, 0, 0)" stroke="rgb(204, 204, 204)" stroke-width="1px"></line></g><g transform="translate(51.91500186920166, 0)"><text style="text-anchor: end; visibility: hidden; font-family: Roboto, sans-serif; font-size: 12px; font-weight: 200;" x="0" y="177.55199909210205" dx="0em" dy="0.3em" fill="rgb(50, 49, 63)" stroke="none" stroke-width="1px">-0.05</text><text style="text-anchor: end; visibility: inherit; font-family: Roboto, sans-serif; font-size: 12px; font-weight: 200;" x="0" y="155.3579992055893" dx="0em" dy="0.3em" fill="rgb(50, 49, 63)" stroke="none" stroke-width="1px">0</text><text style="text-anchor: end; visibility: hidden; font-family: Roboto, sans-serif; font-size: 12px; font-weight: 200;" x="0" y="133.16399931907654" dx="0em" dy="0.3em" fill="rgb(50, 49, 63)" stroke="none" stroke-width="1px">0.05</text><text style="text-anchor: end; visibility: inherit; font-family: Roboto, sans-serif; font-size: 12px; font-weight: 200;" x="0" y="110.96999943256377" dx="0em" dy="0.3em" fill="rgb(50, 49, 63)" stroke="none" stroke-width="1px">0.1</text><text style="text-anchor: end; visibility: hidden; font-family: Roboto, sans-serif; font-size: 12px; font-weight: 200;" x="0" y="88.77599954605101" dx="0em" dy="0.3em" fill="rgb(50, 49, 63)" stroke="none" stroke-width="1px">0.15</text><text style="text-anchor: end; visibility: inherit; font-family: Roboto, sans-serif; font-size: 12px; font-weight: 200;" x="0" y="66.58199965953827" dx="0em" dy="0.3em" fill="rgb(50, 49, 63)" stroke="none" stroke-width="1px">0.2</text><text style="text-anchor: end; visibility: hidden; font-family: Roboto, sans-serif; font-size: 12px; font-weight: 200;" x="0" y="44.38799977302551" dx="0em" dy="0.3em" fill="rgb(50, 49, 63)" stroke="none" stroke-width="1px">0.25</text><text style="text-anchor: end; visibility: inherit; font-family: Roboto, sans-serif; font-size: 12px; font-weight: 200;" x="0" y="22.193999886512756" dx="0em" dy="0.3em" fill="rgb(50, 49, 63)" stroke="none" stroke-width="1px">0.3</text><text style="text-anchor: end; visibility: hidden; font-family: Roboto, sans-serif; font-size: 12px; font-weight: 200;" x="0" y="0" dx="0em" dy="0.3em" fill="rgb(50, 49, 63)" stroke="none" stroke-width="1px">0.35</text></g><line x1="61.91500186920166" y1="0" x2="61.91500186920166" y2="177.55199909210205" fill="rgb(0, 0, 0)" stroke="rgb(204, 204, 204)" stroke-width="1px"></line></g></g><g transform="translate(61, 0)" clip-path="url(#clip_0)"><clipPath id="clip_0"><rect width="268" height="177"></rect></clipPath><g><g><g><line x1="0" y1="0" x2="0" y2="177.55199909210205" fill="rgb(0, 0, 0)" stroke="rgb(60, 60, 60)" stroke-width="1px" opacity="0.25"></line><line x1="29.787222014533146" y1="0" x2="29.787222014533146" y2="177.55199909210205" fill="rgb(0, 0, 0)" stroke="rgb(60, 60, 60)" stroke-width="1px" opacity="0.25"></line><line x1="59.57444402906629" y1="0" x2="59.57444402906629" y2="177.55199909210205" fill="rgb(0, 0, 0)" stroke="rgb(60, 60, 60)" stroke-width="1px" opacity="0.25"></line><line x1="89.36166604359944" y1="0" x2="89.36166604359944" y2="177.55199909210205" fill="rgb(0, 0, 0)" stroke="rgb(60, 60, 60)" stroke-width="1px" opacity="0.25"></line><line x1="119.14888805813258" y1="0" x2="119.14888805813258" y2="177.55199909210205" fill="rgb(0, 0, 0)" stroke="rgb(60, 60, 60)" stroke-width="1px" opacity="0.25"></line><line x1="148.93611007266574" y1="0" x2="148.93611007266574" y2="177.55199909210205" fill="rgb(0, 0, 0)" stroke="rgb(60, 60, 60)" stroke-width="1px" opacity="0.25"></line><line x1="178.72333208719888" y1="0" x2="178.72333208719888" y2="177.55199909210205" fill="rgb(0, 0, 0)" stroke="rgb(60, 60, 60)" stroke-width="1px" opacity="0.25"></line><line x1="208.51055410173205" y1="0" x2="208.51055410173205" y2="177.55199909210205" fill="rgb(0, 0, 0)" stroke="rgb(60, 60, 60)" stroke-width="1px" opacity="0.25"></line><line x1="238.29777611626517" y1="0" x2="238.29777611626517" y2="177.55199909210205" fill="rgb(0, 0, 0)" stroke="rgb(60, 60, 60)" stroke-width="1px" opacity="0.25"></line><line x1="268.08499813079834" y1="0" x2="268.08499813079834" y2="177.55199909210205" fill="rgb(0, 0, 0)" stroke="rgb(60, 60, 60)" stroke-width="1px" opacity="0.25"></line></g><g><line x1="0" y1="177.55199909210205" x2="268.08499813079834" y2="177.55199909210205" fill="rgb(0, 0, 0)" stroke="rgb(60, 60, 60)" stroke-width="1px" opacity="0.25"></line><line x1="0" y1="155.3579992055893" x2="268.08499813079834" y2="155.3579992055893" fill="rgb(0, 0, 0)" stroke="rgb(60, 60, 60)" stroke-width="1px" opacity="0.25"></line><line x1="0" y1="133.16399931907654" x2="268.08499813079834" y2="133.16399931907654" fill="rgb(0, 0, 0)" stroke="rgb(60, 60, 60)" stroke-width="1px" opacity="0.25"></line><line x1="0" y1="110.96999943256377" x2="268.08499813079834" y2="110.96999943256377" fill="rgb(0, 0, 0)" stroke="rgb(60, 60, 60)" stroke-width="1px" opacity="0.25"></line><line x1="0" y1="88.77599954605101" x2="268.08499813079834" y2="88.77599954605101" fill="rgb(0, 0, 0)" stroke="rgb(60, 60, 60)" stroke-width="1px" opacity="0.25"></line><line x1="0" y1="66.58199965953827" x2="268.08499813079834" y2="66.58199965953827" fill="rgb(0, 0, 0)" stroke="rgb(60, 60, 60)" stroke-width="1px" opacity="0.25"></line><line x1="0" y1="44.38799977302551" x2="268.08499813079834" y2="44.38799977302551" fill="rgb(0, 0, 0)" stroke="rgb(60, 60, 60)" stroke-width="1px" opacity="0.25"></line><line x1="0" y1="22.193999886512756" x2="268.08499813079834" y2="22.193999886512756" fill="rgb(0, 0, 0)" stroke="rgb(60, 60, 60)" stroke-width="1px" opacity="0.25"></line><line x1="0" y1="0" x2="268.08499813079834" y2="0" fill="rgb(0, 0, 0)" stroke="rgb(60, 60, 60)" stroke-width="1px" opacity="0.25"></line></g></g></g><g><g><line x1="0" y1="155.3579992055893" x2="268.08499813079834" y2="155.3579992055893" fill="rgb(0, 0, 0)" stroke="rgb(153, 153, 153)" stroke-width="1.5px"></line></g></g><g><g><line x1="29.787222014533146" y1="0" x2="29.787222014533146" y2="177.55199909210205" fill="rgb(0, 0, 0)" stroke="rgb(153, 153, 153)" stroke-width="1.5px"></line></g></g><g><g><g><g><g><path style="fill: none;" stroke="rgb(255, 112, 67)" stroke-width="2px" d="M35.74466641743978,-36.928724792088474L38.72338861889309,15.101213751510254L41.70211082034641,21.75634546414464L44.68083302179972,33.47049496489719L47.65955522325304,-177.00039038164198L53.61699962615967,-1.6526937894632874L56.595721827612984,46.0415634868602L59.57444402906629,75.98676461651182L62.553166230519615,96.23327546485581L65.53188843197293,105.8638654680408L68.51061063342624,112.10505671242754L71.48933283487956,118.63133901207037L74.46805503633287,120.1660284742289L77.44677723778618,126.50473336944255L80.4254994392395,134.80054466895513L83.40422164069282,128.77376413920516L86.38294384214613,128.4447579663707L89.36166604359944,116.35696319589496L92.34038824505276,129.03711868316455L95.31911044650607,129.30428733257963L98.29783264795938,127.11816949172714L101.2765548494127,137.11185719984184L104.25527705086603,141.34315129718752L107.23399925231934,133.74047998437194L110.21272145377264,138.21982539976833L113.19144365522597,137.4631201220373L116.17016585667929,140.45038556587235L119.14888805813258,143.09489920201068L122.12761025958591,143.05931005226878L125.10633246103923,143.29523011008135L128.08505466249255,147.18484252293837L122.12761025958591,147.4740113969834L125.10633246103923,148.65539898142885L128.08505466249255,147.01105951259066L131.06377686394586,149.6048276630445L134.04249906539917,149.94267519452515L137.02122126685248,151.12456527010787L139.99994346830582,149.9433032100045L142.97866566975912,150.02875108556574L145.9573878712124,144.17056044666825L148.93611007266574,147.786052390643L151.91483227411905,148.9576946648245L154.89355447557236,148.45592923975502L157.8722766770257,150.33355038821014L160.850998878479,151.61717333620985L163.82972107993234,151.60574328082592L166.80844328138565,152.03094601110567L169.78716548283893,152.76865616923286L172.76588768429227,151.72149406332827L175.74460988574558,151.90471309278817L178.72333208719888,152.26631437645443L181.70205428865222,151.62902831437367L184.68077649010553,151.61995410245405L187.65949869155884,152.80323091423546L190.63822089301215,153.29178053141302L193.61694309446546,153.6364834526196L196.59566529591876,152.84197069667272L199.5743874973721,153.24745110932307L202.5531096988254,153.32326177613453L205.53183190027875,153.4682340679005L208.51055410173205,151.6351713376367L211.48927630318536,152.2713166740567L214.46799850463867,152.68934447885093L217.44672070609198,153.61080709106295L220.4254429075453,153.55146597671975L223.40416510899863,153.44393355679898L211.48927630318536,153.60253893148536L214.46799850463867,152.27716579801475L217.44672070609198,152.79661092280276L220.4254429075453,153.5075035450601L223.40416510899863,153.81614059284428L226.38288731045193,153.56727701567974L229.36160951190524,153.19815832101273L232.34033171335858,153.08793471688742L235.31905391481186,153.67611410749728L238.29777611626517,153.6292744687355" fill="none"></path></g><g><path style="fill: none;" stroke="rgb(0, 119, 187)" stroke-width="2px" d="M29.787222014533146,155.3579992055893L59.57444402906629,145.9981037788004L89.36166604359944,123.4737122808557L119.14888805813258,125.72885797615085L119.14888805813258,126.8791231295457L148.93611007266574,135.00973046896934L178.72333208719888,135.95631745948847L208.51055410173205,134.10764205168303L238.29777611626517,136.62967117690548" fill="none"></path></g></g></g></g><g opacity="0.2"><g><g><g><path style="fill: none;" stroke="rgb(255, 112, 67)" stroke-width="2px" d="M32.765944215986465,-215.66700780213802L35.74466641743978,70.3142450139412L38.72338861889309,65.04995475336507L41.70211082034641,29.58278035820271L44.68083302179972,48.7644885530797L47.65955522325304,-468.1573943346303L50.63827742470635,75.38281071251558L53.61699962615967,102.57601052332589L56.595721827612984,116.38132883690403L59.57444402906629,120.45189836052404L62.553166230519615,126.41940737412044L65.53188843197293,120.25734122730783L68.51061063342624,121.4464650067231L71.48933283487956,128.40797679510797L74.46805503633287,122.46625869761395L77.44677723778618,136.00832016646794L80.4254994392395,147.24075110890686L83.40422164069282,119.73512354350383L86.38294384214613,127.95129882789803L89.36166604359944,98.22637591250313L92.34038824505276,148.05665650420633L95.31911044650607,129.70503151540407L98.29783264795938,123.83903589153164L101.2765548494127,152.10227037725556L104.25527705086603,147.69006236897852L107.23399925231934,122.3365054370689L110.21272145377264,144.93883206144568L113.19144365522597,136.32806336716163L116.17016585667929,144.9312809799312L119.14888805813258,147.06166819463573L122.12761025958591,143.00592633945772L125.10633246103923,143.64911014985998L128.08505466249255,153.0192606778823L122.12761025958591,147.90776468733833L125.10633246103923,150.42748030732477L128.08505466249255,144.54455035173442L131.06377686394586,153.49547984859547L134.04249906539917,150.44944648860988L137.02122126685248,152.89740037689907L139.99994346830582,148.17141012379705L142.97866566975912,150.1569228987363L145.9573878712124,135.38327449536985L148.93611007266574,153.20929030399535L151.91483227411905,150.71515807558922L154.89355447557236,147.70328110228124L157.8722766770257,153.1499821106001L160.850998878479,153.54260775808933L163.82972107993234,151.58859819775063L166.80844328138565,152.668750106511L169.78716548283893,153.87522140640874L172.76588768429227,150.15075090448406L175.74460988574558,152.1795416369767L178.72333208719888,152.80871630195233L181.70205428865222,150.67309922125415L184.68077649010553,151.60634278457468L187.65949869155884,154.57814613190646L190.63822089301215,154.02460495717915L193.61694309446546,154.15353783442927L196.59566529591876,151.6502015627526L199.5743874973721,153.85567172829855L202.5531096988254,153.4369777763517L205.53183190027875,153.68569250554944L208.51055410173205,148.88557724224106L211.48927630318536,153.22553467868667L214.46799850463867,153.3163861860423L217.44672070609198,154.99300100938092L220.4254429075453,153.462454305205L223.40416510899863,153.28263492691775L211.48927630318536,153.840446993515L214.46799850463867,150.28910609780877L217.44672070609198,153.5757786099848L220.4254429075453,154.5738424784461L223.40416510899863,154.27909616452055L226.38288731045193,153.19398164993294L229.36160951190524,152.64448027901216L232.34033171335858,152.92259931069944L235.31905391481186,154.55838319341214L238.29777611626517,153.55901501059282" fill="none"></path></g><g><path style="fill: none;" stroke="rgb(0, 119, 187)" stroke-width="2px" d="M29.787222014533146,155.3579992055893L59.57444402906629,140.38216652272706L89.36166604359944,101.85029644282876L119.14888805813258,128.380909313818L119.14888805813258,128.380909313818L148.93611007266574,146.25728743803444L178.72333208719888,137.3099520013227L208.51055410173205,131.41225555981876L238.29777611626517,140.3491742576713" fill="none"></path></g></g></g></g></g></g><g transform="translate(61, 177)" clip-path="url(#clip_1)"><clipPath id="clip_1"><rect width="268" height="22"></rect></clipPath><g><g><line x1="0" y1="0" x2="0" y2="5" style="visibility: inherit;" fill="rgb(0, 0, 0)" stroke="rgb(204, 204, 204)" stroke-width="1px"></line><line x1="29.787222014533146" y1="0" x2="29.787222014533146" y2="5" style="visibility: inherit;" fill="rgb(0, 0, 0)" stroke="rgb(204, 204, 204)" stroke-width="1px"></line><line x1="59.57444402906629" y1="0" x2="59.57444402906629" y2="5" style="visibility: inherit;" fill="rgb(0, 0, 0)" stroke="rgb(204, 204, 204)" stroke-width="1px"></line><line x1="89.36166604359944" y1="0" x2="89.36166604359944" y2="5" style="visibility: inherit;" fill="rgb(0, 0, 0)" stroke="rgb(204, 204, 204)" stroke-width="1px"></line><line x1="119.14888805813258" y1="0" x2="119.14888805813258" y2="5" style="visibility: inherit;" fill="rgb(0, 0, 0)" stroke="rgb(204, 204, 204)" stroke-width="1px"></line><line x1="148.93611007266574" y1="0" x2="148.93611007266574" y2="5" style="visibility: inherit;" fill="rgb(0, 0, 0)" stroke="rgb(204, 204, 204)" stroke-width="1px"></line><line x1="178.72333208719888" y1="0" x2="178.72333208719888" y2="5" style="visibility: inherit;" fill="rgb(0, 0, 0)" stroke="rgb(204, 204, 204)" stroke-width="1px"></line><line x1="208.51055410173205" y1="0" x2="208.51055410173205" y2="5" style="visibility: inherit;" fill="rgb(0, 0, 0)" stroke="rgb(204, 204, 204)" stroke-width="1px"></line><line x1="238.29777611626517" y1="0" x2="238.29777611626517" y2="5" style="visibility: inherit;" fill="rgb(0, 0, 0)" stroke="rgb(204, 204, 204)" stroke-width="1px"></line><line x1="268.08499813079834" y1="0" x2="268.08499813079834" y2="5" style="visibility: inherit;" fill="rgb(0, 0, 0)" stroke="rgb(204, 204, 204)" stroke-width="1px"></line></g><g transform="translate(0, 8)"><text style="text-anchor: middle; visibility: hidden; font-family: Roboto, sans-serif; font-size: 12px; font-weight: 200;" x="0" y="0" dx="0em" dy="0.95em" fill="rgb(50, 49, 63)" stroke="none" stroke-width="1px">-1k</text><text style="text-anchor: middle; visibility: inherit; font-family: Roboto, sans-serif; font-size: 12px; font-weight: 200;" x="29.787222014533146" y="0" dx="0em" dy="0.95em" fill="rgb(50, 49, 63)" stroke="none" stroke-width="1px">0</text><text style="text-anchor: middle; visibility: inherit; font-family: Roboto, sans-serif; font-size: 12px; font-weight: 200;" x="59.57444402906629" y="0" dx="0em" dy="0.95em" fill="rgb(50, 49, 63)" stroke="none" stroke-width="1px">1k</text><text style="text-anchor: middle; visibility: inherit; font-family: Roboto, sans-serif; font-size: 12px; font-weight: 200;" x="89.36166604359944" y="0" dx="0em" dy="0.95em" fill="rgb(50, 49, 63)" stroke="none" stroke-width="1px">2k</text><text style="text-anchor: middle; visibility: inherit; font-family: Roboto, sans-serif; font-size: 12px; font-weight: 200;" x="119.14888805813258" y="0" dx="0em" dy="0.95em" fill="rgb(50, 49, 63)" stroke="none" stroke-width="1px">3k</text><text style="text-anchor: middle; visibility: inherit; font-family: Roboto, sans-serif; font-size: 12px; font-weight: 200;" x="148.93611007266574" y="0" dx="0em" dy="0.95em" fill="rgb(50, 49, 63)" stroke="none" stroke-width="1px">4k</text><text style="text-anchor: middle; visibility: inherit; font-family: Roboto, sans-serif; font-size: 12px; font-weight: 200;" x="178.72333208719888" y="0" dx="0em" dy="0.95em" fill="rgb(50, 49, 63)" stroke="none" stroke-width="1px">5k</text><text style="text-anchor: middle; visibility: inherit; font-family: Roboto, sans-serif; font-size: 12px; font-weight: 200;" x="208.51055410173205" y="0" dx="0em" dy="0.95em" fill="rgb(50, 49, 63)" stroke="none" stroke-width="1px">6k</text><text style="text-anchor: middle; visibility: inherit; font-family: Roboto, sans-serif; font-size: 12px; font-weight: 200;" x="238.29777611626517" y="0" dx="0em" dy="0.95em" fill="rgb(50, 49, 63)" stroke="none" stroke-width="1px">7k</text><text style="text-anchor: middle; visibility: hidden; font-family: Roboto, sans-serif; font-size: 12px; font-weight: 200;" x="268.08499813079834" y="0" dx="0em" dy="0.95em" fill="rgb(50, 49, 63)" stroke="none" stroke-width="1px">8k</text></g><line x1="0" y1="0" x2="268.08499813079834" y2="0" fill="rgb(0, 0, 0)" stroke="rgb(204, 204, 204)" stroke-width="1px"></line></g></g></g></g></svg>