<svg viewBox="0 0 330 200" xmlns="http://www.w3.org/2000/svg"><g><g><g><g><g><line x1="51.53200149536133" y1="177.55199909210205" x2="46.53200149536133" y2="177.55199909210205" style="visibility: inherit;" fill="rgb(0, 0, 0)" stroke="rgb(204, 204, 204)" stroke-width="1px"></line><line x1="51.53200149536133" y1="162.75599916776028" x2="46.53200149536133" y2="162.75599916776028" style="visibility: inherit;" fill="rgb(0, 0, 0)" stroke="rgb(204, 204, 204)" stroke-width="1px"></line><line x1="51.53200149536133" y1="147.95999924341837" x2="46.53200149536133" y2="147.95999924341837" style="visibility: inherit;" fill="rgb(0, 0, 0)" stroke="rgb(204, 204, 204)" stroke-width="1px"></line><line x1="51.53200149536133" y1="133.16399931907657" x2="46.53200149536133" y2="133.16399931907657" style="visibility: inherit;" fill="rgb(0, 0, 0)" stroke="rgb(204, 204, 204)" stroke-width="1px"></line><line x1="51.53200149536133" y1="118.36799939473465" x2="46.53200149536133" y2="118.36799939473465" style="visibility: inherit;" fill="rgb(0, 0, 0)" stroke="rgb(204, 204, 204)" stroke-width="1px"></line><line x1="51.53200149536133" y1="103.57199947039287" x2="46.53200149536133" y2="103.57199947039287" style="visibility: inherit;" fill="rgb(0, 0, 0)" stroke="rgb(204, 204, 204)" stroke-width="1px"></line><line x1="51.53200149536133" y1="88.77599954605111" x2="46.53200149536133" y2="88.77599954605111" style="visibility: inherit;" fill="rgb(0, 0, 0)" stroke="rgb(204, 204, 204)" stroke-width="1px"></line><line x1="51.53200149536133" y1="73.97999962170918" x2="46.53200149536133" y2="73.97999962170918" style="visibility: inherit;" fill="rgb(0, 0, 0)" stroke="rgb(204, 204, 204)" stroke-width="1px"></line><line x1="51.53200149536133" y1="59.1839996973674" x2="46.53200149536133" y2="59.1839996973674" style="visibility: inherit;" fill="rgb(0, 0, 0)" stroke="rgb(204, 204, 204)" stroke-width="1px"></line><line x1="51.53200149536133" y1="44.38799977302547" x2="46.53200149536133" y2="44.38799977302547" style="visibility: inherit;" fill="rgb(0, 0, 0)" stroke="rgb(204, 204, 204)" stroke-width="1px"></line><line x1="51.53200149536133" y1="29.591999848683688" x2="46.53200149536133" y2="29.591999848683688" style="visibility: inherit;" fill="rgb(0, 0, 0)" stroke="rgb(204, 204, 204)" stroke-width="1px"></line><line x1="51.53200149536133" y1="14.795999924341922" x2="46.53200149536133" y2="14.795999924341922" style="visibility: inherit;" fill="rgb(0, 0, 0)" stroke="rgb(204, 204, 204)" stroke-width="1px"></line><line x1="51.53200149536133" y1="0" x2="46.53200149536133" y2="0" style="visibility: inherit;" fill="rgb(0, 0, 0)" stroke="rgb(204, 204, 204)" stroke-width="1px"></line></g><g transform="translate(41.53200149536133, 0)"><text style="text-anchor: end; visibility: hidden; font-family: Roboto, sans-serif; font-size: 12px; font-weight: 200;" x="0" y="177.55199909210205" dx="0em" dy="0.3em" fill="rgb(50, 49, 63)" stroke="none" stroke-width="1px">2</text><text style="text-anchor: end; visibility: inherit; font-family: Roboto, sans-serif; font-size: 12px; font-weight: 200;" x="0" y="162.75599916776028" dx="0em" dy="0.3em" fill="rgb(50, 49, 63)" stroke="none" stroke-width="1px">2.05</text><text style="text-anchor: end; visibility: hidden; font-family: Roboto, sans-serif; font-size: 12px; font-weight: 200;" x="0" y="147.95999924341837" dx="0em" dy="0.3em" fill="rgb(50, 49, 63)" stroke="none" stroke-width="1px">2.1</text><text style="text-anchor: end; visibility: inherit; font-family: Roboto, sans-serif; font-size: 12px; font-weight: 200;" x="0" y="133.16399931907657" dx="0em" dy="0.3em" fill="rgb(50, 49, 63)" stroke="none" stroke-width="1px">2.15</text><text style="text-anchor: end; visibility: hidden; font-family: Roboto, sans-serif; font-size: 12px; font-weight: 200;" x="0" y="118.36799939473465" dx="0em" dy="0.3em" fill="rgb(50, 49, 63)" stroke="none" stroke-width="1px">2.2</text><text style="text-anchor: end; visibility: inherit; font-family: Roboto, sans-serif; font-size: 12px; font-weight: 200;" x="0" y="103.57199947039287" dx="0em" dy="0.3em" fill="rgb(50, 49, 63)" stroke="none" stroke-width="1px">2.25</text><text style="text-anchor: end; visibility: hidden; font-family: Roboto, sans-serif; font-size: 12px; font-weight: 200;" x="0" y="88.77599954605111" dx="0em" dy="0.3em" fill="rgb(50, 49, 63)" stroke="none" stroke-width="1px">2.3</text><text style="text-anchor: end; visibility: inherit; font-family: Roboto, sans-serif; font-size: 12px; font-weight: 200;" x="0" y="73.97999962170918" dx="0em" dy="0.3em" fill="rgb(50, 49, 63)" stroke="none" stroke-width="1px">2.35</text><text style="text-anchor: end; visibility: hidden; font-family: Roboto, sans-serif; font-size: 12px; font-weight: 200;" x="0" y="59.1839996973674" dx="0em" dy="0.3em" fill="rgb(50, 49, 63)" stroke="none" stroke-width="1px">2.4</text><text style="text-anchor: end; visibility: inherit; font-family: Roboto, sans-serif; font-size: 12px; font-weight: 200;" x="0" y="44.38799977302547" dx="0em" dy="0.3em" fill="rgb(50, 49, 63)" stroke="none" stroke-width="1px">2.45</text><text style="text-anchor: end; visibility: hidden; font-family: Roboto, sans-serif; font-size: 12px; font-weight: 200;" x="0" y="29.591999848683688" dx="0em" dy="0.3em" fill="rgb(50, 49, 63)" stroke="none" stroke-width="1px">2.5</text><text style="text-anchor: end; visibility: inherit; font-family: Roboto, sans-serif; font-size: 12px; font-weight: 200;" x="0" y="14.795999924341922" dx="0em" dy="0.3em" fill="rgb(50, 49, 63)" stroke="none" stroke-width="1px">2.55</text><text style="text-anchor: end; visibility: hidden; font-family: Roboto, sans-serif; font-size: 12px; font-weight: 200;" x="0" y="0" dx="0em" dy="0.3em" fill="rgb(50, 49, 63)" stroke="none" stroke-width="1px">2.6</text></g><line x1="51.53200149536133" y1="0" x2="51.53200149536133" y2="177.55199909210205" fill="rgb(0, 0, 0)" stroke="rgb(204, 204, 204)" stroke-width="1px"></line></g></g><g transform="translate(51, 0)" clip-path="url(#clip_0)"><clipPath id="clip_0"><rect width="278" height="177"></rect></clipPath><g><g><g><line x1="0" y1="0" x2="0" y2="177.55199909210205" fill="rgb(0, 0, 0)" stroke="rgb(60, 60, 60)" stroke-width="1px" opacity="0.25"></line><line x1="30.94088872273763" y1="0" x2="30.94088872273763" y2="177.55199909210205" fill="rgb(0, 0, 0)" stroke="rgb(60, 60, 60)" stroke-width="1px" opacity="0.25"></line><line x1="61.88177744547526" y1="0" x2="61.88177744547526" y2="177.55199909210205" fill="rgb(0, 0, 0)" stroke="rgb(60, 60, 60)" stroke-width="1px" opacity="0.25"></line><line x1="92.82266616821289" y1="0" x2="92.82266616821289" y2="177.55199909210205" fill="rgb(0, 0, 0)" stroke="rgb(60, 60, 60)" stroke-width="1px" opacity="0.25"></line><line x1="123.76355489095052" y1="0" x2="123.76355489095052" y2="177.55199909210205" fill="rgb(0, 0, 0)" stroke="rgb(60, 60, 60)" stroke-width="1px" opacity="0.25"></line><line x1="154.70444361368817" y1="0" x2="154.70444361368817" y2="177.55199909210205" fill="rgb(0, 0, 0)" stroke="rgb(60, 60, 60)" stroke-width="1px" opacity="0.25"></line><line x1="185.64533233642578" y1="0" x2="185.64533233642578" y2="177.55199909210205" fill="rgb(0, 0, 0)" stroke="rgb(60, 60, 60)" stroke-width="1px" opacity="0.25"></line><line x1="216.58622105916342" y1="0" x2="216.58622105916342" y2="177.55199909210205" fill="rgb(0, 0, 0)" stroke="rgb(60, 60, 60)" stroke-width="1px" opacity="0.25"></line><line x1="247.52710978190103" y1="0" x2="247.52710978190103" y2="177.55199909210205" fill="rgb(0, 0, 0)" stroke="rgb(60, 60, 60)" stroke-width="1px" opacity="0.25"></line><line x1="278.4679985046387" y1="0" x2="278.4679985046387" y2="177.55199909210205" fill="rgb(0, 0, 0)" stroke="rgb(60, 60, 60)" stroke-width="1px" opacity="0.25"></line></g><g><line x1="0" y1="177.55199909210205" x2="278.4679985046387" y2="177.55199909210205" fill="rgb(0, 0, 0)" stroke="rgb(60, 60, 60)" stroke-width="1px" opacity="0.25"></line><line x1="0" y1="162.75599916776028" x2="278.4679985046387" y2="162.75599916776028" fill="rgb(0, 0, 0)" stroke="rgb(60, 60, 60)" stroke-width="1px" opacity="0.25"></line><line x1="0" y1="147.95999924341837" x2="278.4679985046387" y2="147.95999924341837" fill="rgb(0, 0, 0)" stroke="rgb(60, 60, 60)" stroke-width="1px" opacity="0.25"></line><line x1="0" y1="133.16399931907657" x2="278.4679985046387" y2="133.16399931907657" fill="rgb(0, 0, 0)" stroke="rgb(60, 60, 60)" stroke-width="1px" opacity="0.25"></line><line x1="0" y1="118.36799939473465" x2="278.4679985046387" y2="118.36799939473465" fill="rgb(0, 0, 0)" stroke="rgb(60, 60, 60)" stroke-width="1px" opacity="0.25"></line><line x1="0" y1="103.57199947039287" x2="278.4679985046387" y2="103.57199947039287" fill="rgb(0, 0, 0)" stroke="rgb(60, 60, 60)" stroke-width="1px" opacity="0.25"></line><line x1="0" y1="88.77599954605111" x2="278.4679985046387" y2="88.77599954605111" fill="rgb(0, 0, 0)" stroke="rgb(60, 60, 60)" stroke-width="1px" opacity="0.25"></line><line x1="0" y1="73.97999962170918" x2="278.4679985046387" y2="73.97999962170918" fill="rgb(0, 0, 0)" stroke="rgb(60, 60, 60)" stroke-width="1px" opacity="0.25"></line><line x1="0" y1="59.1839996973674" x2="278.4679985046387" y2="59.1839996973674" fill="rgb(0, 0, 0)" stroke="rgb(60, 60, 60)" stroke-width="1px" opacity="0.25"></line><line x1="0" y1="44.38799977302547" x2="278.4679985046387" y2="44.38799977302547" fill="rgb(0, 0, 0)" stroke="rgb(60, 60, 60)" stroke-width="1px" opacity="0.25"></line><line x1="0" y1="29.591999848683688" x2="278.4679985046387" y2="29.591999848683688" fill="rgb(0, 0, 0)" stroke="rgb(60, 60, 60)" stroke-width="1px" opacity="0.25"></line><line x1="0" y1="14.795999924341922" x2="278.4679985046387" y2="14.795999924341922" fill="rgb(0, 0, 0)" stroke="rgb(60, 60, 60)" stroke-width="1px" opacity="0.25"></line><line x1="0" y1="0" x2="278.4679985046387" y2="0" fill="rgb(0, 0, 0)" stroke="rgb(60, 60, 60)" stroke-width="1px" opacity="0.25"></line></g></g></g><g><g><line x1="0" y1="769.3919960657755" x2="278.4679985046387" y2="769.3919960657755" fill="rgb(0, 0, 0)" stroke="rgb(153, 153, 153)" stroke-width="1.5px"></line></g></g><g><g><line x1="30.94088872273763" y1="0" x2="30.94088872273763" y2="177.55199909210205" fill="rgb(0, 0, 0)" stroke="rgb(153, 153, 153)" stroke-width="1.5px"></line></g></g><g><g><g><g><g><path style="fill: none;" stroke="rgb(255, 112, 67)" stroke-width="2px" d="M37.129066467285156,204.95425353939467L40.223155339558915,110.81149905427898L43.31724421183268,79.72211597465879L46.411333084106445,60.15836227800603L49.50542195638021,48.435846499773405L52.59951082865397,42.67762770109912L55.693599700927734,35.312700161582775L58.7876885732015,28.686858517984334L61.88177744547526,27.265692470578205L64.97586631774902,108.47848219302587L68.06995519002278,72.60741530740891L71.16404406229654,55.97476580808357L74.25813293457031,46.819473924709285L77.35222180684408,41.31536369102951L80.44631067911783,36.8575002027862L83.5403995513916,36.440192005159375L86.63448842366536,40.93622536785243L89.72857729593913,36.814319889663295L92.82266616821289,33.00617509336834L95.91675504048665,107.88438123682543L99.01084391276042,75.80215733846508L102.10493278503417,53.45560220334494L105.19902165730794,43.42070287190773L108.29311052958171,39.82594294668582L111.38719940185547,44.24919992276519L114.48128827412923,49.44977023528296L117.575377146403,52.96799897565134L120.66946601867676,54.658468062964054L123.76355489095052,58.66037972866428L126.85764376322427,124.89647536190789L129.95173263549805,88.09418939253275L133.04582150777182,73.09892005472759L136.13991038004556,59.743964740363424L126.85764376322427,193.3003890866975L129.95173263549805,121.33317153732678L133.04582150777182,76.10692241319391L136.13991038004556,51.02688491458657L139.23399925231934,36.7934371797044L142.32808812459308,25.928963385963883L145.42217699686688,18.488661668458928L148.51626586914062,17.058167479223886L151.61035474141437,13.341606674798866L154.70444361368817,12.047567534703798L157.7985324859619,95.16418254807172L160.89262135823566,57.99239689378012L163.98671023050946,37.19531789616753L167.0807991027832,29.830061988181214L170.17488797505698,23.168542099035253L173.26897684733072,19.670777295930137L176.3630657196045,16.797476610486658L179.45715459187826,15.114981260662852L182.551243464152,17.722050110470924L185.64533233642578,27.90364175624161L188.73942120869955,168.61446264791314L191.8335100809733,112.44051872219013L194.92759895324707,86.5670362454911L198.02168782552084,74.9591365587869L201.1157766977946,68.76105197050644L204.20986557006833,68.28717965553541L207.30395444234213,70.00799579029643L210.39804331461588,67.5841307677573L213.49213218688968,52.80636218399539L216.58622105916342,45.968292316700364L219.68030993143717,119.70676382961773L222.77439880371094,86.07111208539298L225.8684876759847,63.240885755771984L228.96257654825845,52.76721163432144L232.05666542053223,50.74053153085501L219.68030993143717,179.42703498867198L222.77439880371094,113.03921532450346L225.8684876759847,75.42840132988734L228.96257654825845,65.29538094052407L232.05666542053223,45.83542288604226L235.150754292806,31.47149828377251L238.24484316507974,28.79422763662371L241.33893203735352,22.851039502993462L244.4330209096273,19.558843364884805L247.52710978190103,20.49515612977774" fill="none"></path></g></g></g></g><g opacity="0.2"><g><g><g><path style="fill: none;" stroke="rgb(255, 112, 67)" stroke-width="2px" d="M34.03497759501139,494.02816300689216L37.129066467285156,31.509907858896163L40.223155339558915,20.434454748567937L43.31724421183268,43.16100147302527L46.411333084106445,34.61592545165636L49.50542195638021,32.219387072797595L52.59951082865397,34.443282687494L55.693599700927734,24.57456510566319L58.7876885732015,18.915029097157706L61.88177744547526,25.15542651855603L64.97586631774902,229.5610727511761L68.06995519002278,18.99602374090859L71.16404406229654,31.08010004554219L74.25813293457031,33.1044722695352L77.35222180684408,33.06566821547337L80.44631067911783,30.173849001134474L83.5403995513916,35.81440629956246L86.63448842366536,47.679133869508355L89.72857729593913,30.632089603191933L92.82266616821289,27.29430597844425L95.91675504048665,220.19758395323038L99.01084391276042,27.679877170167718L102.10493278503417,19.936210694414008L105.19902165730794,28.36847274770134L108.29311052958171,34.43382860886802L111.38719940185547,50.88406652371345L114.48128827412923,57.25061239722552L117.575377146403,58.245336684894205L120.66946601867676,57.19417013677194L123.76355489095052,64.66324501541904L126.85764376322427,224.2505968471632L129.95173263549805,32.890767760892864L133.04582150777182,50.606017838154024L136.13991038004556,39.71153272540507L126.85764376322427,393.63501986637493L129.95173263549805,13.382347069021643L133.04582150777182,8.267549426718707L136.13991038004556,13.406828899493368L139.23399925231934,15.44326565665835L142.32808812459308,9.632252731660579L145.42217699686688,7.328209107120093L148.51626586914062,14.912426197092481L151.61035474141437,7.766765470844367L154.70444361368817,10.106508825121745L157.7985324859619,219.8391050465246L160.89262135823566,2.2347184181384088L163.98671023050946,5.999699401694096L167.0807991027832,18.78217812661512L170.17488797505698,13.176262265540522L173.26897684733072,14.424130091343494L176.3630657196045,12.48752558235578L179.45715459187826,12.591238235939223L182.551243464152,21.632653385171757L185.64533233642578,43.17602922487104L188.73942120869955,379.68069398519935L191.8335100809733,28.179602833658553L194.92759895324707,47.75681253045759L198.02168782552084,57.54728702873462L201.1157766977946,59.463925088086874L204.20986557006833,67.57637118307913L207.30395444234213,72.58921999243778L210.39804331461588,63.94833323394894L213.49213218688968,30.639709308353165L216.58622105916342,35.71118751575798L219.68030993143717,230.31447109899298L222.77439880371094,35.61763446905618L225.8684876759847,28.99554626134054L228.96257654825845,37.05670045214563L232.05666542053223,47.70051137565515L219.68030993143717,372.4567901753975L222.77439880371094,13.457485828250464L225.8684876759847,19.01218033796342L228.96257654825845,50.09585035647928L232.05666542053223,16.645485804319488L235.150754292806,9.925611380368032L238.24484316507974,24.7783216659006L241.33893203735352,13.93625730254791L244.4330209096273,14.620549157721934L247.52710978190103,21.89962527711716" fill="none"></path></g></g></g></g></g></g><g transform="translate(51, 177)" clip-path="url(#clip_1)"><clipPath id="clip_1"><rect width="278" height="22"></rect></clipPath><g><g><line x1="0" y1="0" x2="0" y2="5" style="visibility: inherit;" fill="rgb(0, 0, 0)" stroke="rgb(204, 204, 204)" stroke-width="1px"></line><line x1="30.94088872273763" y1="0" x2="30.94088872273763" y2="5" style="visibility: inherit;" fill="rgb(0, 0, 0)" stroke="rgb(204, 204, 204)" stroke-width="1px"></line><line x1="61.88177744547526" y1="0" x2="61.88177744547526" y2="5" style="visibility: inherit;" fill="rgb(0, 0, 0)" stroke="rgb(204, 204, 204)" stroke-width="1px"></line><line x1="92.82266616821289" y1="0" x2="92.82266616821289" y2="5" style="visibility: inherit;" fill="rgb(0, 0, 0)" stroke="rgb(204, 204, 204)" stroke-width="1px"></line><line x1="123.76355489095052" y1="0" x2="123.76355489095052" y2="5" style="visibility: inherit;" fill="rgb(0, 0, 0)" stroke="rgb(204, 204, 204)" stroke-width="1px"></line><line x1="154.70444361368817" y1="0" x2="154.70444361368817" y2="5" style="visibility: inherit;" fill="rgb(0, 0, 0)" stroke="rgb(204, 204, 204)" stroke-width="1px"></line><line x1="185.64533233642578" y1="0" x2="185.64533233642578" y2="5" style="visibility: inherit;" fill="rgb(0, 0, 0)" stroke="rgb(204, 204, 204)" stroke-width="1px"></line><line x1="216.58622105916342" y1="0" x2="216.58622105916342" y2="5" style="visibility: inherit;" fill="rgb(0, 0, 0)" stroke="rgb(204, 204, 204)" stroke-width="1px"></line><line x1="247.52710978190103" y1="0" x2="247.52710978190103" y2="5" style="visibility: inherit;" fill="rgb(0, 0, 0)" stroke="rgb(204, 204, 204)" stroke-width="1px"></line><line x1="278.4679985046387" y1="0" x2="278.4679985046387" y2="5" style="visibility: inherit;" fill="rgb(0, 0, 0)" stroke="rgb(204, 204, 204)" stroke-width="1px"></line></g><g transform="translate(0, 8)"><text style="text-anchor: middle; visibility: hidden; font-family: Roboto, sans-serif; font-size: 12px; font-weight: 200;" x="0" y="0" dx="0em" dy="0.95em" fill="rgb(50, 49, 63)" stroke="none" stroke-width="1px">-1k</text><text style="text-anchor: middle; visibility: inherit; font-family: Roboto, sans-serif; font-size: 12px; font-weight: 200;" x="30.94088872273763" y="0" dx="0em" dy="0.95em" fill="rgb(50, 49, 63)" stroke="none" stroke-width="1px">0</text><text style="text-anchor: middle; visibility: inherit; font-family: Roboto, sans-serif; font-size: 12px; font-weight: 200;" x="61.88177744547526" y="0" dx="0em" dy="0.95em" fill="rgb(50, 49, 63)" stroke="none" stroke-width="1px">1k</text><text style="text-anchor: middle; visibility: inherit; font-family: Roboto, sans-serif; font-size: 12px; font-weight: 200;" x="92.82266616821289" y="0" dx="0em" dy="0.95em" fill="rgb(50, 49, 63)" stroke="none" stroke-width="1px">2k</text><text style="text-anchor: middle; visibility: inherit; font-family: Roboto, sans-serif; font-size: 12px; font-weight: 200;" x="123.76355489095052" y="0" dx="0em" dy="0.95em" fill="rgb(50, 49, 63)" stroke="none" stroke-width="1px">3k</text><text style="text-anchor: middle; visibility: inherit; font-family: Roboto, sans-serif; font-size: 12px; font-weight: 200;" x="154.70444361368817" y="0" dx="0em" dy="0.95em" fill="rgb(50, 49, 63)" stroke="none" stroke-width="1px">4k</text><text style="text-anchor: middle; visibility: inherit; font-family: Roboto, sans-serif; font-size: 12px; font-weight: 200;" x="185.64533233642578" y="0" dx="0em" dy="0.95em" fill="rgb(50, 49, 63)" stroke="none" stroke-width="1px">5k</text><text style="text-anchor: middle; visibility: inherit; font-family: Roboto, sans-serif; font-size: 12px; font-weight: 200;" x="216.58622105916342" y="0" dx="0em" dy="0.95em" fill="rgb(50, 49, 63)" stroke="none" stroke-width="1px">6k</text><text style="text-anchor: middle; visibility: inherit; font-family: Roboto, sans-serif; font-size: 12px; font-weight: 200;" x="247.52710978190103" y="0" dx="0em" dy="0.95em" fill="rgb(50, 49, 63)" stroke="none" stroke-width="1px">7k</text><text style="text-anchor: middle; visibility: hidden; font-family: Roboto, sans-serif; font-size: 12px; font-weight: 200;" x="278.4679985046387" y="0" dx="0em" dy="0.95em" fill="rgb(50, 49, 63)" stroke="none" stroke-width="1px">8k</text></g><line x1="0" y1="0" x2="278.4679985046387" y2="0" fill="rgb(0, 0, 0)" stroke="rgb(204, 204, 204)" stroke-width="1px"></line></g></g></g></g></svg>